<svg xmlns="http://www.w3.org/2000/svg" viewBox="0 0 64 64" fill="none">
  <defs>
    <linearGradient id="g" x1="0" y1="0" x2="1" y2="1">
      <stop offset="0%" stop-color="#16a34a"/>
      <stop offset="100%" stop-color="#065f46"/>
    </linearGradient>
  </defs>
  <rect width="64" height="64" rx="12" fill="url(#g)"/>
  <g transform="translate(14 12)" fill="#fff">
    <path d="M18 4c-6 3-10 8-12 16 2-2 6-4 10-4 2 0 3 0 5 1 0-5-1-9-3-13Z" fill-opacity=".9"/>
    <path d="M20 12c6 3 10 8 12 16-2-2-6-4-10-4-2 0-3 0-5 1 0-5 1-9 3-13Z" fill-opacity=".9"/>
    <circle cx="20" cy="22" r="3"/>
  </g>
</svg>
