<?xml version="1.0" encoding="UTF-8"?>
<svg version="1.1" xmlns="http://www.w3.org/2000/svg" width="1024" height="1024">
<path d="M0 0 C0.67442139 -0.00999023 1.34884277 -0.01998047 2.04370117 -0.03027344 C14.00934205 -0.17568164 23.93611814 1.98615317 34.5625 7.5 C34.5625 8.16 34.5625 8.82 34.5625 9.5 C35.27792969 9.60441406 35.99335938 9.70882813 36.73046875 9.81640625 C39.87413677 10.57522267 42.11465773 11.76493706 44.875 13.4375 C45.75800781 13.96214844 46.64101563 14.48679687 47.55078125 15.02734375 C48.54658203 15.75630859 48.54658203 15.75630859 49.5625 16.5 C49.5625 17.16 49.5625 17.82 49.5625 18.5 C50.44615234 18.89251953 50.44615234 18.89251953 51.34765625 19.29296875 C53.68035434 20.5642275 55.16604368 21.90230531 57 23.8125 C57.60328125 24.43125 58.2065625 25.05 58.828125 25.6875 C60.30273974 27.22853882 61.77646511 28.7704286 63.25 30.3125 C67.46871767 34.30317888 70.84861084 34.74533539 76.5625 35.5 C76.8925 35.83 77.2225 36.16 77.5625 36.5 C79.74269479 36.89666227 81.9321463 37.24315237 84.125 37.5625 C85.32253906 37.73910156 86.52007813 37.91570312 87.75390625 38.09765625 C88.68074219 38.23042969 89.60757812 38.36320312 90.5625 38.5 C90.5625 39.16 90.5625 39.82 90.5625 40.5 C94.1925 40.83 97.8225 41.16 101.5625 41.5 C101.5625 42.16 101.5625 42.82 101.5625 43.5 C102.26375 43.53738281 102.965 43.57476562 103.6875 43.61328125 C104.63625 43.67902344 105.585 43.74476563 106.5625 43.8125 C107.490625 43.87050781 108.41875 43.92851562 109.375 43.98828125 C112.58034364 44.5028646 115.37707432 45.4577401 118.38916016 46.65063477 C120.66107311 47.53852346 122.95060581 48.33341598 125.26171875 49.11328125 C134.98135369 52.41784128 144.35926875 55.91517859 153.5625 60.5 C153.5625 61.16 153.5625 61.82 153.5625 62.5 C154.42359375 62.59925781 155.2846875 62.69851563 156.171875 62.80078125 C159.88489456 63.56648459 162.50783096 64.84388537 165.8125 66.6875 C166.94816406 67.31914062 168.08382813 67.95078125 169.25390625 68.6015625 C172.90672893 70.69751507 176.53753917 72.81989263 180.12890625 75.01953125 C181.87340643 76.08079219 183.63319149 77.11708354 185.40234375 78.13671875 C186.32144531 78.66910156 187.24054688 79.20148438 188.1875 79.75 C189.02539062 80.22953125 189.86328125 80.7090625 190.7265625 81.203125 C191.33242188 81.63109375 191.93828125 82.0590625 192.5625 82.5 C192.5625 83.16 192.5625 83.82 192.5625 84.5 C193.8825 84.83 195.2025 85.16 196.5625 85.5 C196.5625 86.16 196.5625 86.82 196.5625 87.5 C197.09617187 87.73460937 197.62984375 87.96921875 198.1796875 88.2109375 C201.25965354 89.87714863 203.94051674 91.97156567 206.6875 94.125 C207.25936035 94.57085449 207.8312207 95.01670898 208.42041016 95.47607422 C209.58420947 96.38485646 210.74681714 97.29516689 211.90820312 98.20703125 C213.39362641 99.36801143 214.89137769 100.51317747 216.390625 101.65625 C229.26532369 111.60847107 229.26532369 111.60847107 231.5625 118.5 C232.89583333 118.83333333 234.22916667 119.16666667 235.5625 119.5 C237.046875 121.05859375 237.046875 121.05859375 238.3125 122.9375 C238.95445312 123.86369141 238.95445312 123.86369141 239.609375 124.80859375 C240.5625 126.5 240.5625 126.5 240.5625 128.5 C241.2225 128.5 241.8825 128.5 242.5625 128.5 C242.5625 129.16 242.5625 129.82 242.5625 130.5 C243.2225 130.5 243.8825 130.5 244.5625 130.5 C246.15465803 132.48713569 247.61724355 134.47149655 249.0625 136.5625 C249.50029785 137.18648682 249.9380957 137.81047363 250.38916016 138.45336914 C253.61998637 143.0817611 256.79259415 147.7503807 259.9375 152.4375 C260.34162109 153.03892822 260.74574219 153.64035645 261.16210938 154.26000977 C268.5625 165.40215364 268.5625 165.40215364 268.5625 170.5 C269.2225 170.5 269.8825 170.5 270.5625 170.5 C272.32712683 173.58809695 272.5625 174.73312136 272.5625 178.5 C273.2225 178.5 273.8825 178.5 274.5625 178.5 C274.81644531 179.15226563 275.07039062 179.80453125 275.33203125 180.4765625 C276.85439977 184.34235222 278.34026548 188.08727874 280.3125 191.75 C281.73407052 194.87745514 281.80514995 197.10290068 281.5625 200.5 C282.2225 200.5 282.8825 200.5 283.5625 200.5 C283.5625 202.48 283.5625 204.46 283.5625 206.5 C284.2225 206.5 284.8825 206.5 285.5625 206.5 C285.5625 208.48 285.5625 210.46 285.5625 212.5 C286.2225 212.5 286.8825 212.5 287.5625 212.5 C287.7171875 214.0159375 287.7171875 214.0159375 287.875 215.5625 C288.46598657 218.94724127 289.37255966 221.33773809 290.80078125 224.41015625 C292.12356312 228.03932703 292.56895907 231.82432882 293.1328125 235.6328125 C293.39337988 237.37150758 293.69904882 239.10529848 294.0859375 240.8203125 C294.8965233 245.37819661 294.96184588 249.99460203 295.16796875 254.61328125 C295.00843998 258.36659928 295.00843998 258.36659928 296.5625 261.5 C296.65583705 263.09610982 296.67995372 264.69633428 296.67602539 266.29516602 C296.67594986 267.31614883 296.67587433 268.33713165 296.67579651 269.38905334 C296.67063522 270.4994548 296.66547394 271.60985626 296.66015625 272.75390625 C296.6587413 273.88448959 296.65732635 275.01507294 296.65586853 276.17991638 C296.65025019 279.80747065 296.63769458 283.43496424 296.625 287.0625 C296.61998736 289.51497307 296.61542405 291.9674471 296.61132812 294.41992188 C296.6002748 300.44663545 296.58351884 306.47331339 296.5625 312.5 C295.9025 312.5 295.2425 312.5 294.5625 312.5 C294.58570313 313.50160156 294.60890625 314.50320313 294.6328125 315.53515625 C294.65158789 316.87759664 294.66978618 318.22004518 294.6875 319.5625 C294.71070313 320.87347656 294.73390625 322.18445313 294.7578125 323.53515625 C294.56182984 327.51360421 293.73936545 330.71238706 292.5625 334.5 C292.37067346 335.97390772 292.21754065 337.45404538 292.125 338.9375 C291.7608543 342.83716944 290.73454744 345.98871059 289.25390625 349.59375 C288.20472735 352.48640143 287.95674133 355.45870973 287.5625 358.5 C286.93993972 360.51416562 286.28683347 362.52015519 285.5625 364.5 C284.9025 364.5 284.2425 364.5 283.5625 364.5 C283.62050781 365.35722656 283.67851563 366.21445312 283.73828125 367.09765625 C283.53538826 371.02476282 282.48380063 373.42349533 280.75 376.9375 C280.20472656 378.06414062 279.65945313 379.19078125 279.09765625 380.3515625 C278.59105469 381.39054687 278.08445312 382.42953125 277.5625 383.5 C276.53023101 385.82165993 275.54362135 388.1562101 274.5625 390.5 C273.9025 390.5 273.2425 390.5 272.5625 390.5 C272.5625 391.49 272.5625 392.48 272.5625 393.5 C271.9025 393.5 271.2425 393.5 270.5625 393.5 C270.5625 394.82 270.5625 396.14 270.5625 397.5 C269.9025 397.5 269.2425 397.5 268.5625 397.5 C268.40394531 398.34691406 268.40394531 398.34691406 268.2421875 399.2109375 C267.44613686 401.89188964 266.24608651 403.80650564 264.6875 406.125 C264.17445313 406.90101563 263.66140625 407.67703125 263.1328125 408.4765625 C261.00619628 411.21682917 259.30480301 412.38613007 255.86328125 412.9140625 C254.87714844 412.98367188 253.89101563 413.05328125 252.875 413.125 C251.38419922 413.23714844 251.38419922 413.23714844 249.86328125 413.3515625 C249.10402344 413.40054687 248.34476563 413.44953125 247.5625 413.5 C248.30935059 413.61593506 249.05620117 413.73187012 249.82568359 413.85131836 C253.1968364 414.37660077 256.56716692 414.90698461 259.9375 415.4375 C261.113125 415.61990234 262.28875 415.80230469 263.5 415.99023438 C264.62148438 416.16748047 265.74296875 416.34472656 266.8984375 416.52734375 C267.93532715 416.68968506 268.9722168 416.85202637 270.04052734 417.01928711 C272.5625 417.5 272.5625 417.5 274.5625 418.5 C276.11151337 418.75363325 277.66793006 418.96286495 279.2265625 419.1484375 C280.17644043 419.26517822 281.12631836 419.38191895 282.10498047 419.50219727 C283.12221191 419.62522217 284.13944336 419.74824707 285.1875 419.875 C297.79041315 421.45697612 310.19025212 423.60527996 322.5625 426.5 C323.54347656 426.72558594 324.52445313 426.95117188 325.53515625 427.18359375 C328.87832385 427.95264184 332.22039153 428.72636378 335.5625 429.5 C337.109375 429.85578125 337.109375 429.85578125 338.6875 430.21875 C340.79204275 430.70279483 342.89620314 431.18850477 345 431.67578125 C346.92402991 432.12092414 348.84823816 432.56531338 350.7734375 433.00537109 C353.12056158 433.54195407 355.4665757 434.08319852 357.8125 434.625 C358.94026855 434.88108032 358.94026855 434.88108032 360.09082031 435.14233398 C365.44900883 436.38650883 365.44900883 436.38650883 366.5625 437.5 C369.46132748 438.04410169 372.37233782 438.46520239 375.2890625 438.90234375 C378.08356345 439.41255693 380.74377916 440.07756689 383.46386719 440.88647461 C386.06613363 441.64723491 388.68200648 442.34894793 391.30078125 443.05078125 C392.36014893 443.33469727 393.4195166 443.61861328 394.51098633 443.91113281 C395.62111084 444.20858398 396.73123535 444.50603516 397.875 444.8125 C400.19799967 445.43849415 402.52091594 446.06479786 404.84375 446.69140625 C408.92466475 447.79193606 413.00765686 448.88371903 417.09375 449.96484375 C418.68758943 450.3928963 420.28134607 450.82125732 421.875 451.25 C422.59018799 451.43602783 423.30537598 451.62205566 424.04223633 451.8137207 C427.95269614 452.87606149 431.29421716 454.07178236 434.5625 456.5 C434.8925 457.49 435.2225 458.48 435.5625 459.5 C434.9025 459.5 434.2425 459.5 433.5625 459.5 C433.5625 460.16 433.5625 460.82 433.5625 461.5 C427.78716727 460.86340082 422.22750478 459.83549516 416.5625 458.5625 C409.09066448 456.93007194 401.68937699 455.7918996 394.09375 454.93359375 C390.23858578 454.46022735 386.48608036 453.75684383 382.69140625 452.94140625 C379.66381071 452.31366626 376.6277089 451.89980986 373.5625 451.5 C373.5625 450.84 373.5625 450.18 373.5625 449.5 C372.54542969 449.51740234 372.54542969 449.51740234 371.5078125 449.53515625 C365.16745545 449.59662786 358.83338185 449.54514697 352.5625 448.5 C352.2325 448.17 351.9025 447.84 351.5625 447.5 C349.6394127 447.2714679 347.70889772 447.10481143 345.77734375 446.96484375 C344.60751953 446.87783203 343.43769531 446.79082031 342.23242188 446.70117188 C341.00072266 446.61416016 339.76902344 446.52714844 338.5 446.4375 C337.26443359 446.34662109 336.02886719 446.25574219 334.75585938 446.16210938 C331.69168006 445.93732402 328.62725198 445.7168144 325.5625 445.5 C325.5625 444.84 325.5625 444.18 325.5625 443.5 C324.63050781 443.51160156 323.69851563 443.52320313 322.73828125 443.53515625 C299.95532154 443.69641077 299.95532154 443.69641077 295.5625 441.5 C293.47448529 441.3444072 291.38182337 441.24967329 289.2890625 441.18359375 C287.99750244 441.14161865 286.70594238 441.09964355 285.37524414 441.05639648 C283.97933838 441.01645009 282.58342344 440.97682377 281.1875 440.9375 C279.77791218 440.89465309 278.36832559 440.85176561 276.95874023 440.80883789 C266.15866474 440.49233422 255.3666355 440.38437905 244.5625 440.5 C244.5625 441.49 244.5625 442.48 244.5625 443.5 C243.9025 443.5 243.2425 443.5 242.5625 443.5 C242.5625 444.49 242.5625 445.48 242.5625 446.5 C241.9025 446.5 241.2425 446.5 240.5625 446.5 C240.335625 447.03625 240.10875 447.5725 239.875 448.125 C238.10679911 451.32460161 236.02579797 453.79037223 233.5625 456.5 C232.9025 456.5 232.2425 456.5 231.5625 456.5 C231.5625 457.16 231.5625 457.82 231.5625 458.5 C230.9025 458.5 230.2425 458.5 229.5625 458.5 C229.5625 459.49 229.5625 460.48 229.5625 461.5 C227.33715403 464.0344218 225.42838626 466.07942667 222.375 467.5625 C219.98719435 468.79757189 219.72639103 470.10375377 218.5625 472.5 C216.0625 475.25 216.0625 475.25 213.5625 477.5 C212.9025 477.5 212.2425 477.5 211.5625 477.5 C211.315 478.098125 211.0675 478.69625 210.8125 479.3125 C209.38177475 481.81626919 207.9933418 482.98072388 205.5625 484.5 C204.9025 484.5 204.2425 484.5 203.5625 484.5 C203.5625 485.16 203.5625 485.82 203.5625 486.5 C201.97363281 487.90454102 201.97363281 487.90454102 199.765625 489.50390625 C198.9715625 490.07947266 198.1775 490.65503906 197.359375 491.24804688 C196.51890625 491.84681641 195.6784375 492.44558594 194.8125 493.0625 C193.9875 493.66513672 193.1625 494.26777344 192.3125 494.88867188 C185.52548307 499.76547194 185.52548307 499.76547194 181.5625 500.5 C181.5625 501.16 181.5625 501.82 181.5625 502.5 C181.04300781 502.75394531 180.52351563 503.00789063 179.98828125 503.26953125 C176.81199435 504.83712571 173.7156247 506.40679366 170.6875 508.25 C168.5625 509.5 168.5625 509.5 166.5625 509.5 C166.5625 510.16 166.5625 510.82 166.5625 511.5 C165.29558493 512.17408308 164.02379251 512.83900497 162.75 513.5 C162.04230469 513.87125 161.33460938 514.2425 160.60546875 514.625 C158.5625 515.5 158.5625 515.5 155.5625 515.5 C155.5625 516.16 155.5625 516.82 155.5625 517.5 C153.96100114 518.17305018 152.35618971 518.83822227 150.75 519.5 C149.85667969 519.87125 148.96335937 520.2425 148.04296875 520.625 C145.5625 521.5 145.5625 521.5 142.5625 521.5 C142.5625 522.16 142.5625 522.82 142.5625 523.5 C134.39108192 526.66809057 126.30908578 529.75161312 117.8046875 531.921875 C116.0376214 532.37749483 114.29371369 532.92292877 112.5625 533.5 C108.89237552 534.72337483 105.17757606 535.71808734 101.44140625 536.71875 C99.40135548 537.27235943 97.37588967 537.88104825 95.36328125 538.52734375 C90.64853722 539.73389181 86.02712493 540.15978157 81.1875 540.5625 C79.3876776 540.71608146 77.58817075 540.87342364 75.7890625 541.03515625 C75.00096191 541.100979 74.21286133 541.16680176 73.40087891 541.23461914 C71.54811666 541.31477515 71.54811666 541.31477515 70.5625 542.5 C69.09974595 542.59822116 67.63230711 542.62798364 66.16625977 542.62939453 C64.76459312 542.63412277 64.76459312 542.63412277 63.33460999 542.63894653 C62.31797775 542.6369223 61.30134552 542.63489807 60.25390625 542.6328125 C58.69832253 542.63424759 58.69832253 542.63424759 57.11131287 542.63571167 C54.91299377 542.63639369 52.71467268 542.63453791 50.51635742 542.63037109 C47.14302051 542.62502854 43.76981708 542.6303126 40.39648438 542.63671875 C38.2656247 542.63605787 36.13476512 542.63477649 34.00390625 542.6328125 C32.48199425 542.63584885 32.48199425 542.63584885 30.92933655 542.63894653 C29.99173996 542.63579437 29.05414337 542.63264221 28.08813477 542.62939453 C27.26064224 542.62859894 26.43314972 542.62780334 25.58058167 542.62698364 C23.5625 542.5 23.5625 542.5 21.5625 541.5 C10.27688594 540.33484778 -1.04538359 540.39714819 -12.375 540.5 C-15.40494334 540.52655904 -18.4348288 540.54645994 -21.46484375 540.5625 C-22.78218506 540.57410156 -24.09952637 540.58570313 -25.45678711 540.59765625 C-28.4375 540.5 -28.4375 540.5 -29.4375 539.5 C-30.99394353 539.1775729 -32.55809745 538.89200582 -34.125 538.625 C-41.52598438 537.17629667 -48.05317042 533.85963082 -53.4375 528.5 C-54.6236085 526.07917199 -55.00605953 524.19650293 -55.4375 521.5 C-56.489375 521.3453125 -56.489375 521.3453125 -57.5625 521.1875 C-60.82887647 520.40640997 -63.4846852 519.07941257 -66.4375 517.5 C-66.4375 516.84 -66.4375 516.18 -66.4375 515.5 C-68.4175 515.17 -70.3975 514.84 -72.4375 514.5 C-72.4375 513.84 -72.4375 513.18 -72.4375 512.5 C-73.38625 512.396875 -74.335 512.29375 -75.3125 512.1875 C-84.46554944 510.85883153 -93.73097264 507.63768491 -101.4375 502.5 C-101.4375 501.84 -101.4375 501.18 -101.4375 500.5 C-102.7575 500.17 -104.0775 499.84 -105.4375 499.5 C-105.4375 498.84 -105.4375 498.18 -105.4375 497.5 C-106.05625 497.21125 -106.675 496.9225 -107.3125 496.625 C-110.63195213 494.86764299 -111.39668293 493.60204268 -112.8125 490.0625 C-114.41914905 486.54023092 -115.32409189 485.5398191 -118.4375 483.5 C-118.4375 482.84 -118.4375 482.18 -118.4375 481.5 C-119.7575 480.84 -121.0775 480.18 -122.4375 479.5 C-122.4375 478.84 -122.4375 478.18 -122.4375 477.5 C-122.994375 477.273125 -123.55125 477.04625 -124.125 476.8125 C-127.09909588 475.12449964 -129.15758865 473.03323483 -131.4375 470.5 C-131.4375 469.84 -131.4375 469.18 -131.4375 468.5 C-131.99953125 468.2628125 -132.5615625 468.025625 -133.140625 467.78125 C-135.95644042 466.21052303 -137.91705416 464.28528536 -140.1875 462 C-141.38632812 460.80890625 -141.38632812 460.80890625 -142.609375 459.59375 C-144.4375 457.5 -144.4375 457.5 -144.4375 455.5 C-145.0975 455.5 -145.7575 455.5 -146.4375 455.5 C-148.04384015 453.76608049 -149.5750287 451.961909 -151.0625 450.125 C-151.87976563 449.12726563 -152.69703125 448.12953125 -153.5390625 447.1015625 C-155.4375 444.5 -155.4375 444.5 -155.4375 442.5 C-156.0975 442.5 -156.7575 442.5 -157.4375 442.5 C-157.7675 441.84 -158.0975 441.18 -158.4375 440.5 C-162.72944146 440.63837796 -167.02096929 440.78695939 -171.3125 440.9375 C-172.53582031 440.97681641 -173.75914062 441.01613281 -175.01953125 441.05664062 C-176.18613281 441.09853516 -177.35273438 441.14042969 -178.5546875 441.18359375 C-179.63347168 441.22025146 -180.71225586 441.25690918 -181.82373047 441.29467773 C-184.41819536 441.33376643 -184.41819536 441.33376643 -186.4375 442.5 C-187.93246842 442.70699563 -189.4341592 442.86679259 -190.9375 443 C-191.824375 443.0825 -192.71125 443.165 -193.625 443.25 C-195.5 443.41666667 -197.375 443.58333333 -199.25 443.75 C-200.136875 443.8325 -201.02375 443.915 -201.9375 444 C-202.7521875 444.0721875 -203.566875 444.144375 -204.40625 444.21875 C-206.50096646 444.39826909 -206.50096646 444.39826909 -208.4375 445.5 C-210.0172773 445.70772782 -211.60357612 445.86717433 -213.19140625 446 C-214.12791016 446.0825 -215.06441406 446.165 -216.02929688 446.25 C-218.01364443 446.41699309 -219.99801959 446.58365849 -221.98242188 446.75 C-222.91763672 446.8325 -223.85285156 446.915 -224.81640625 447 C-225.6782251 447.0721875 -226.54004395 447.144375 -227.42797852 447.21875 C-229.43179447 447.29353751 -229.43179447 447.29353751 -230.4375 448.5 C-231.76418532 448.71321728 -233.10009619 448.86997463 -234.4375 449 C-235.241875 449.0825 -236.04625 449.165 -236.875 449.25 C-238.58333333 449.41666667 -240.29166667 449.58333333 -242 449.75 C-242.804375 449.8325 -243.60875 449.915 -244.4375 450 C-245.18 450.0721875 -245.9225 450.144375 -246.6875 450.21875 C-248.46133001 450.3285148 -248.46133001 450.3285148 -249.4375 451.5 C-251.79172703 451.80601921 -254.13922392 452.06865108 -256.5 452.3125 C-263.0509413 453.05046793 -269.26577538 454.33877902 -275.62939453 456.03393555 C-280.89765429 457.41953334 -286.13590432 458.3170203 -291.52734375 459.05859375 C-294.21778411 459.46667397 -296.79864801 460.03104753 -299.4375 460.6875 C-302.73062835 461.46984541 -305.14538007 461.56197417 -308.4375 460.5 C-308.4375 459.51 -308.4375 458.52 -308.4375 457.5 C-305.24734665 454.38271817 -301.17981414 453.05894564 -297.0625 451.5625 C-296.35786621 451.30235107 -295.65323242 451.04220215 -294.92724609 450.77416992 C-289.23529701 448.70941826 -283.47915555 446.97108686 -277.63671875 445.37890625 C-273.9299635 444.3605669 -270.27564148 443.20636152 -266.62109375 442.015625 C-264.16624755 441.43594754 -261.95113525 441.41164727 -259.4375 441.5 C-259.4375 440.84 -259.4375 440.18 -259.4375 439.5 C-258.70144531 439.37882812 -257.96539062 439.25765625 -257.20703125 439.1328125 C-256.23121094 438.96523438 -255.25539062 438.79765625 -254.25 438.625 C-253.28707031 438.46257812 -252.32414062 438.30015625 -251.33203125 438.1328125 C-248.51148996 437.51617594 -246.10094082 436.59695535 -243.4375 435.5 C-237.08164731 433.61229443 -231.08848164 432.04652398 -224.4375 432.5 C-224.4375 431.84 -224.4375 431.18 -224.4375 430.5 C-223.71304688 430.37882812 -222.98859375 430.25765625 -222.2421875 430.1328125 C-217.12877611 429.24648786 -212.34595022 428.20728703 -207.4375 426.5 C-206.06634632 426.17103369 -204.690758 425.86030218 -203.3125 425.5625 C-202.55195313 425.38460938 -201.79140625 425.20671875 -201.0078125 425.0234375 C-198.4375 424.5 -198.4375 424.5 -195.3671875 424.1640625 C-191.97572633 423.65575997 -189.46344308 423.13409736 -186.4375 421.5 C-183.89338748 417.37864575 -182.62342861 413.17147514 -181.4375 408.5 C-181.1075 407.51 -180.7775 406.52 -180.4375 405.5 C-180.71321139 403.49124558 -181.03985737 401.48821313 -181.4375 399.5 C-182.0975 399.5 -182.7575 399.5 -183.4375 399.5 C-183.4375 398.18 -183.4375 396.86 -183.4375 395.5 C-184.0975 395.5 -184.7575 395.5 -185.4375 395.5 C-185.4375 393.85 -185.4375 392.2 -185.4375 390.5 C-186.0975 390.5 -186.7575 390.5 -187.4375 390.5 C-187.4375 389.51 -187.4375 388.52 -187.4375 387.5 C-188.0975 387.5 -188.7575 387.5 -189.4375 387.5 C-192.05044321 381.53843054 -193.96968279 375.86327883 -195.04296875 369.43359375 C-195.25205052 367.50162747 -195.25205052 367.50162747 -196.4375 366.5 C-196.47813832 364.83382885 -196.480221 363.16611905 -196.4375 361.5 C-197.0975 361.5 -197.7575 361.5 -198.4375 361.5 C-198.4375 359.52 -198.4375 357.54 -198.4375 355.5 C-199.0975 355.5 -199.7575 355.5 -200.4375 355.5 C-200.8396875 353.64375 -200.8396875 353.64375 -201.25 351.75 C-202.79925363 344.78385248 -204.3779318 337.7964344 -206.5625 331 C-208.05264805 325.0394078 -208.48395248 318.83528814 -208.3984375 312.6953125 C-208.18293231 310.52309606 -208.18293231 310.52309606 -209.4375 309.5 C-209.54649494 307.98090374 -209.58655387 306.45679142 -209.59863281 304.93383789 C-209.60824036 303.95673355 -209.6178479 302.97962921 -209.62774658 301.97291565 C-209.63199646 300.90033005 -209.63624634 299.82774445 -209.640625 298.72265625 C-209.64632507 297.60934433 -209.65202515 296.49603241 -209.65789795 295.34898376 C-209.66738315 292.9689123 -209.67389578 290.5888275 -209.67773438 288.20874023 C-209.68722737 284.66429173 -209.71812092 281.12047854 -209.75 277.57617188 C-209.86272378 253.37107133 -208.28064892 229.2395258 -199.4375 206.5 C-199.04669203 204.51043215 -198.68899128 202.51193023 -198.4375 200.5 C-197.7775 200.5 -197.1175 200.5 -196.4375 200.5 C-196.48970703 199.40365234 -196.48970703 199.40365234 -196.54296875 198.28515625 C-196.43315911 195.38536822 -195.88477323 193.58829439 -194.75 190.9375 C-194.39035156 190.08285156 -194.03070313 189.22820312 -193.66015625 188.34765625 C-193.05494141 186.93806641 -193.05494141 186.93806641 -192.4375 185.5 C-191.51953602 183.29220562 -190.60286534 181.08387306 -189.6875 178.875 C-188.93821462 177.08303436 -188.18847435 175.29125849 -187.4375 173.5 C-186.7775 173.5 -186.1175 173.5 -185.4375 173.5 C-185.47875 172.5925 -185.52 171.685 -185.5625 170.75 C-185.44218444 167.6217954 -185.0460292 166.11385994 -183.4375 163.5 C-182.7775 163.5 -182.1175 163.5 -181.4375 163.5 C-181.4375 162.18 -181.4375 160.86 -181.4375 159.5 C-182.0975 159.17 -182.7575 158.84 -183.4375 158.5 C-183.4375 157.84 -183.4375 157.18 -183.4375 156.5 C-183.48390625 155.31277344 -183.5303125 154.12554687 -183.578125 152.90234375 C-184.03274081 137.62966332 -184.03274081 137.62966332 -179.4375 130.5 C-178.82003906 129.52417969 -178.20257813 128.54835938 -177.56640625 127.54296875 C-175.57485565 124.48975979 -173.52226904 121.49010699 -171.4375 118.5 C-170.93476563 117.7575 -170.43203125 117.015 -169.9140625 116.25 C-167.92010659 113.3497005 -166.40185512 111.47623675 -163.4375 109.5 C-161.9400298 107.13576159 -161.9400298 107.13576159 -160.5625 104.375 C-158.3492555 100.16928351 -156.02034837 96.13140593 -153.41796875 92.15625 C-152.27045659 90.35078729 -152.27045659 90.35078729 -151.4375 87.5 C-150.7775 87.5 -150.1175 87.5 -149.4375 87.5 C-149.24220703 86.43652344 -149.24220703 86.43652344 -149.04296875 85.3515625 C-147.05188988 75.97422332 -143.2917611 67.71988213 -138.4375 59.5 C-137.7775 59.5 -137.1175 59.5 -136.4375 59.5 C-135.7775 58.18 -135.1175 56.86 -134.4375 55.5 C-133.4475 55.5 -132.4575 55.5 -131.4375 55.5 C-131.4375 54.51 -131.4375 53.52 -131.4375 52.5 C-130.58929688 52.54382813 -129.74109375 52.58765625 -128.8671875 52.6328125 C-118.91132985 52.61093149 -113.88259113 49.85492032 -106.30078125 43.75 C-103.4375 41.5 -103.4375 41.5 -100.4375 40.5 C-100.4375 39.84 -100.4375 39.18 -100.4375 38.5 C-99.1175 38.17 -97.7975 37.84 -96.4375 37.5 C-96.4375 36.84 -96.4375 36.18 -96.4375 35.5 C-94.25784369 33.92646729 -92.09008833 32.4808372 -89.8125 31.0625 C-89.19503906 30.66740234 -88.57757813 30.27230469 -87.94140625 29.86523438 C-84.20509316 27.50152473 -80.40907238 25.4516466 -76.4375 23.5 C-75.4475 22.84 -74.4575 22.18 -73.4375 21.5 C-72.4475 21.5 -71.4575 21.5 -70.4375 21.5 C-70.4375 20.84 -70.4375 20.18 -70.4375 19.5 C-69.17058493 18.82591692 -67.89879251 18.16099503 -66.625 17.5 C-65.91730469 17.12875 -65.20960938 16.7575 -64.48046875 16.375 C-62.4375 15.5 -62.4375 15.5 -59.4375 15.5 C-59.4375 14.84 -59.4375 14.18 -59.4375 13.5 C-58.48488281 13.16226562 -57.53226563 12.82453125 -56.55078125 12.4765625 C-55.2838359 12.02609304 -54.01690984 11.57556933 -52.75 11.125 C-51.50863281 10.68414062 -50.26726562 10.24328125 -48.98828125 9.7890625 C-46.88228069 9.02450784 -44.78872438 8.22101712 -42.73046875 7.3359375 C-40.4375 6.5 -40.4375 6.5 -36.4375 6.5 C-36.4375 5.84 -36.4375 5.18 -36.4375 4.5 C-24.32727437 1.23955464 -12.50074378 0.06394986 0 0 Z " fill="#FEFEFD" transform="translate(445.4375,248.5)"/>
<path d="M0 0 C3.5451593 2.80593372 6.79893424 5.8099156 10 9 C10.63808594 9.61488281 11.27617187 10.22976563 11.93359375 10.86328125 C23.04994174 22.42527348 27.53072276 38.06804329 27.41992188 53.7355957 C26.83480978 72.74986351 18.46994521 88.02338081 5 101 C3.515 101.99 3.515 101.99 2 103 C2.81517593 102.95554245 2.81517593 102.95554245 3.64682007 102.91018677 C25.21668522 101.79157876 46.78444515 101.84566298 68.37695312 101.86962891 C73.5850205 101.87533314 78.79303682 101.87194433 84.00110245 101.86617661 C125.20440295 101.82769903 125.20440295 101.82769903 145 103 C144.42668945 102.4225 143.85337891 101.845 143.26269531 101.25 C136.29710405 94.11204331 132.91474737 87.01874125 132.5 77 C132.93609914 66.77149293 136.48605277 59.49656539 143.5625 52.1640625 C147.08362379 49.03793657 150.69949854 46.87941762 155 45 C155.969375 44.566875 156.93875 44.13375 157.9375 43.6875 C166.99248325 41.65474866 175.59441325 43.15774037 184 47 C192.49813968 52.87711019 199.10728998 60.67612719 201 71 C201.9831621 81.66352744 199.76083493 90.54895634 193 99 C191.63962055 100.24723931 190.25775732 101.47130417 188.859375 102.67578125 C188.13717773 103.30009033 187.41498047 103.92439941 186.67089844 104.56762695 C185.84380371 105.27665161 185.84380371 105.27665161 185 106 C185.73895508 106.08451416 186.47791016 106.16902832 187.23925781 106.25610352 C205.2725205 108.34792911 223.19026043 110.91032195 241.10766602 113.83056641 C254.22437615 115.9660828 267.35112538 117.91815949 280.52130127 119.69384766 C299.15142079 122.21081193 317.5872099 125.17517007 336 129 C336.67131958 129.13881592 337.34263916 129.27763184 338.03430176 129.4206543 C371.41576628 136.34401299 404.55213675 144.69808185 437.3125 154.125 C437.96537994 154.31117889 438.61825989 154.49735779 439.29092407 154.68917847 C441.08814887 155.2041916 442.88208158 155.73065313 444.67578125 156.2578125 C445.66489502 156.5480127 446.65400879 156.83821289 447.6730957 157.13720703 C450 158 450 158 452 160 C445.73469195 158.99362904 439.49000645 157.91900942 433.26171875 156.703125 C408.98501268 152.00874327 384.55850679 148.82277795 360 146 C359.20597778 145.90827515 358.41195557 145.81655029 357.59387207 145.7220459 C327.15052287 142.23352211 296.61175964 141.90868219 266 142 C266 142.99 266 143.98 266 145 C265.34 145 264.68 145 264 145 C264 145.99 264 146.98 264 148 C263.34 148 262.68 148 262 148 C261.773125 148.53625 261.54625 149.0725 261.3125 149.625 C259.54429911 152.82460161 257.46329797 155.29037223 255 158 C254.34 158 253.68 158 253 158 C253 158.66 253 159.32 253 160 C252.34 160 251.68 160 251 160 C251 160.99 251 161.98 251 163 C248.77465403 165.5344218 246.86588626 167.57942667 243.8125 169.0625 C241.42469435 170.29757189 241.16389103 171.60375377 240 174 C237.5 176.75 237.5 176.75 235 179 C234.34 179 233.68 179 233 179 C232.7525 179.598125 232.505 180.19625 232.25 180.8125 C230.81927475 183.31626919 229.4308418 184.48072388 227 186 C226.34 186 225.68 186 225 186 C225 186.66 225 187.32 225 188 C223.41113281 189.40454102 223.41113281 189.40454102 221.203125 191.00390625 C220.4090625 191.57947266 219.615 192.15503906 218.796875 192.74804688 C217.95640625 193.34681641 217.1159375 193.94558594 216.25 194.5625 C215.425 195.16513672 214.6 195.76777344 213.75 196.38867188 C206.96298307 201.26547194 206.96298307 201.26547194 203 202 C203 202.66 203 203.32 203 204 C202.22076172 204.38091797 202.22076172 204.38091797 201.42578125 204.76953125 C198.24949435 206.33712571 195.1531247 207.90679366 192.125 209.75 C190 211 190 211 188 211 C188 211.66 188 212.32 188 213 C186.73308493 213.67408308 185.46129251 214.33900497 184.1875 215 C183.47980469 215.37125 182.77210938 215.7425 182.04296875 216.125 C180 217 180 217 177 217 C177 217.66 177 218.32 177 219 C175.39850114 219.67305018 173.79368971 220.33822227 172.1875 221 C170.84751953 221.556875 170.84751953 221.556875 169.48046875 222.125 C167 223 167 223 164 223 C164 223.66 164 224.32 164 225 C155.82858192 228.16809057 147.74658578 231.25161312 139.2421875 233.421875 C137.4751214 233.87749483 135.73121369 234.42292877 134 235 C130.32987552 236.22337483 126.61507606 237.21808734 122.87890625 238.21875 C120.83885548 238.77235943 118.81338967 239.38104825 116.80078125 240.02734375 C112.08603722 241.23389181 107.46462493 241.65978157 102.625 242.0625 C100.8251776 242.21608146 99.02567075 242.37342364 97.2265625 242.53515625 C96.04441162 242.63389038 96.04441162 242.63389038 94.83837891 242.73461914 C92.98561666 242.81477515 92.98561666 242.81477515 92 244 C90.53724595 244.09822116 89.06980711 244.12798364 87.60375977 244.12939453 C86.66931534 244.13254669 85.73487091 244.13569885 84.77210999 244.13894653 C83.75547775 244.1369223 82.73884552 244.13489807 81.69140625 244.1328125 C80.13582253 244.13424759 80.13582253 244.13424759 78.54881287 244.13571167 C76.35049377 244.13639369 74.15217268 244.13453791 71.95385742 244.13037109 C68.58052051 244.12502854 65.20731708 244.1303126 61.83398438 244.13671875 C59.7031247 244.13605787 57.57226512 244.13477649 55.44140625 244.1328125 C54.42679825 244.13483673 53.41219025 244.13686096 52.36683655 244.13894653 C51.42923996 244.13579437 50.49164337 244.13264221 49.52563477 244.12939453 C48.69814224 244.12859894 47.87064972 244.12780334 47.01808167 244.12698364 C45 244 45 244 43 243 C31.71438594 241.83484778 20.39211641 241.89714819 9.0625 242 C6.03255666 242.02655904 3.0026712 242.04645994 -0.02734375 242.0625 C-1.34468506 242.07410156 -2.66202637 242.08570313 -4.01928711 242.09765625 C-7 242 -7 242 -8 241 C-9.55644353 240.6775729 -11.12059745 240.39200582 -12.6875 240.125 C-20.08848438 238.67629667 -26.61567042 235.35963082 -32 230 C-33.1861085 227.57917199 -33.56855953 225.69650293 -34 223 C-34.70125 222.896875 -35.4025 222.79375 -36.125 222.6875 C-39.39137647 221.90640997 -42.0471852 220.57941257 -45 219 C-45 218.34 -45 217.68 -45 217 C-46.98 216.67 -48.96 216.34 -51 216 C-51 215.34 -51 214.68 -51 214 C-51.94875 213.896875 -52.8975 213.79375 -53.875 213.6875 C-63.02804944 212.35883153 -72.29347264 209.13768491 -80 204 C-80 203.34 -80 202.68 -80 202 C-81.32 201.67 -82.64 201.34 -84 201 C-84 200.34 -84 199.68 -84 199 C-84.61875 198.71125 -85.2375 198.4225 -85.875 198.125 C-89.19445213 196.36764299 -89.95918293 195.10204268 -91.375 191.5625 C-92.98164905 188.04023092 -93.88659189 187.0398191 -97 185 C-97 184.34 -97 183.68 -97 183 C-98.32 182.34 -99.64 181.68 -101 181 C-101 180.34 -101 179.68 -101 179 C-101.556875 178.773125 -102.11375 178.54625 -102.6875 178.3125 C-105.66159588 176.62449964 -107.72008865 174.53323483 -110 172 C-110 171.34 -110 170.68 -110 170 C-110.56203125 169.7628125 -111.1240625 169.525625 -111.703125 169.28125 C-114.51894042 167.71052303 -116.47955416 165.78528536 -118.75 163.5 C-119.94882812 162.30890625 -119.94882812 162.30890625 -121.171875 161.09375 C-123 159 -123 159 -123 157 C-123.66 157 -124.32 157 -125 157 C-126.60634015 155.26608049 -128.1375287 153.461909 -129.625 151.625 C-130.44226563 150.62726563 -131.25953125 149.62953125 -132.1015625 148.6015625 C-134 146 -134 146 -134 144 C-134.66 144 -135.32 144 -136 144 C-136.33 143.34 -136.66 142.68 -137 142 C-159.90942533 142.25132337 -182.31649798 143.79136637 -205 147 C-205.78133301 147.1101947 -206.56266602 147.2203894 -207.36767578 147.33392334 C-227.96388984 150.25421231 -248.41851948 153.68097943 -268.80859375 157.80078125 C-273.53274411 158.74589493 -278.20951763 159.49542627 -283 160 C-279.62856071 157.75237381 -276.21170483 156.54712741 -272.4140625 155.2421875 C-271.65392349 154.978116 -270.89378448 154.71404449 -270.11061096 154.44197083 C-267.61763158 153.579681 -265.12182666 152.72608236 -262.625 151.875 C-261.76854889 151.58243317 -260.91209778 151.28986633 -260.0296936 150.98843384 C-244.50061655 145.70094211 -228.90362643 141.04333142 -213 137 C-211.7723291 136.68256836 -210.5446582 136.36513672 -209.27978516 136.03808594 C-169.12626113 125.70864445 -128.37269387 118.63003008 -87.41244507 112.37231445 C-85.23617228 112.03644865 -83.06175739 111.69119249 -80.88793945 111.33984375 C-79.74542725 111.15679688 -78.60291504 110.97375 -77.42578125 110.78515625 C-76.49419189 110.63312744 -75.56260254 110.48109863 -74.6027832 110.32446289 C-70.40145107 109.80072493 -66.22455848 109.82834751 -62 110 C-62 109.34 -62 108.68 -62 108 C-62.86044922 107.82984375 -62.86044922 107.82984375 -63.73828125 107.65625 C-74.83616966 104.4361373 -83.7356332 93.35637849 -89.43359375 83.890625 C-97.79216319 68.46583351 -100.59530011 52.48470553 -96.09765625 35.2890625 C-90.74718232 19.25668154 -80.51697143 4.91328336 -65.3125 -2.9765625 C-44.06892528 -13.41144852 -20.09099699 -13.46365474 0 0 Z " fill="#01512C" transform="translate(424,547)"/>
<path d="M0 0 C13.47346992 -0.11580335 26.94682162 -0.2046699 40.42068768 -0.25906086 C46.67704014 -0.28516466 52.93305236 -0.32057816 59.18920898 -0.37719727 C65.22573507 -0.43148737 71.26193371 -0.46141463 77.29868507 -0.47438622 C79.60283375 -0.48363135 81.90696431 -0.50168486 84.21097374 -0.52865028 C87.43621045 -0.56489937 90.66009071 -0.5699469 93.88549805 -0.56762695 C94.83999847 -0.58560333 95.7944989 -0.60357971 96.77792358 -0.62210083 C101.2346363 -0.58736804 103.33061488 -0.49972312 106.98716736 2.2300415 C108.83881602 4.77818675 110.16236687 6.96985154 111.31982422 9.88696289 C111.89423752 11.31896278 111.89423752 11.31896278 112.48025513 12.77989197 C112.87606781 13.81287918 113.27188049 14.84586639 113.6796875 15.91015625 C114.32090042 17.54997215 114.32090042 17.54997215 114.97506714 19.22291565 C119.95035951 32.15159794 124.24542197 45.30649421 128.49432373 58.4866333 C129.35245661 61.14109002 130.21929374 63.79267125 131.08624458 66.44425869 C132.12625903 69.62701839 133.16084244 72.81152735 134.1953125 75.99609375 C134.57954376 77.17602402 134.96377502 78.35595428 135.35964966 79.57164001 C135.70776703 80.65200027 136.0558844 81.73236053 136.41455078 82.84545898 C136.72192169 83.79597641 137.0292926 84.74649384 137.34597778 85.72581482 C138 88 138 88 138 90 C151.53 90 165.06 90 179 90 C178.95359375 86.43445313 178.9071875 82.86890625 178.859375 79.1953125 C178.8281212 75.71681133 178.8038665 72.2383262 178.78027344 68.75976562 C178.76023966 66.35442019 178.73300478 63.94912297 178.69824219 61.54394531 C178.64936192 58.07344622 178.62694795 54.60359474 178.609375 51.1328125 C178.58872986 50.06886261 178.56808472 49.00491272 178.54681396 47.90872192 C178.54420593 39.10111336 180.26363843 31.69406458 186.3125 25.0625 C190.75752197 21.04397268 194.6979378 19.23020622 200.75 18.625 C204 19 204 19 206 20.1875 C207 22 207 22 206.8359375 24.40625 C205.54177455 28.42178364 202.65245931 29.64816556 199.2265625 31.86328125 C194.10602547 36.77720012 193.64936818 43.33933455 193.50764465 50.07226562 C193.50125473 51.05904297 193.49486481 52.04582031 193.48828125 53.0625 C193.47033005 54.09439453 193.45237885 55.12628906 193.43388367 56.18945312 C193.38004544 59.45959484 193.34596978 62.72959281 193.3125 66 C193.27930358 68.22788447 193.24481179 70.45575004 193.20898438 72.68359375 C193.12433446 78.12226685 193.05587333 83.56095918 193 89 C194.0975486 88.99000725 194.0975486 88.99000725 195.2172699 88.97981262 C202.14571988 88.91945834 209.07413008 88.87390273 216.00277615 88.84456348 C219.56405886 88.82897223 223.12512258 88.80785545 226.6862793 88.77368164 C230.78957099 88.73455615 234.89263614 88.72023683 238.99609375 88.70703125 C240.26206894 88.69154739 241.52804413 88.67606354 242.8323822 88.66011047 C250.42356422 88.65867772 257.89975742 88.81343947 264.12109375 93.6484375 C264.55550781 94.21820313 264.98992187 94.78796875 265.4375 95.375 C265.88996094 95.93960938 266.34242188 96.50421875 266.80859375 97.0859375 C271.40923635 104.47713381 271.13252502 113.17998472 269.51513672 121.49169922 C266.07547708 136.07530793 260.10197502 160.26534999 247 169 C244.609375 168.3203125 244.609375 168.3203125 241.75 167.125 C231.83126664 163.5988723 221.41125439 163.51792541 211.6328125 167.58984375 C207.64137082 169.72769308 204.07759498 172.32175077 200.5078125 175.09765625 C199.26644531 176.03931641 199.26644531 176.03931641 198 177 C197.31295486 177.52721146 196.62590973 178.05442291 195.91804504 178.59761047 C191.83000817 180.56228888 188.28226112 180.3966829 183.8034668 180.34057617 C182.88590103 180.34101425 181.96833527 180.34145233 181.02296448 180.34190369 C177.99816412 180.33981812 174.97392197 180.31649776 171.94921875 180.29296875 C169.84886477 180.28737198 167.74850688 180.28310226 165.64814758 180.28010559 C160.12593736 180.26866326 154.60396466 180.23920114 149.08184814 180.20599365 C143.44457207 180.17527971 137.80725754 180.16159741 132.16992188 180.14648438 C121.11317701 180.11433102 110.05660828 180.06314189 99 180 C98.82041748 178.79851318 98.64083496 177.59702637 98.45581055 176.35913086 C98.20408835 174.74846084 97.95186415 173.13786922 97.69921875 171.52734375 C97.58284058 170.73952515 97.4664624 169.95170654 97.34655762 169.14001465 C94.4963459 151.25390344 83.92034571 134.78527707 69.37109375 124.0625 C55.83725317 115.12978019 42.01678305 110.40064142 25.75 110.5 C24.66315918 110.50499512 23.57631836 110.50999023 22.45654297 110.51513672 C7.98483416 110.82633319 -3.81350882 115.47019796 -15.98046875 123.26953125 C-20.17285231 125.88861414 -23.07587034 126.80576667 -28 126 C-32.11254051 123.28417136 -34.92332015 120.90487489 -36 116 C-35.69123921 108.74412153 -31.25769531 103.71734568 -26.2421875 98.86328125 C-19.42074156 93.19458837 -8.32683624 85 1 85 C0.83734146 83.8445166 0.67468292 82.6890332 0.50709534 81.49853516 C-0.01082243 77.33541025 -0.13532893 73.21548897 -0.11352539 69.0234375 C-0.11367142 68.27124435 -0.11381744 67.51905121 -0.1139679 66.74406433 C-0.11327795 64.28767897 -0.10552909 61.83137192 -0.09765625 59.375 C-0.0957888 57.66007529 -0.09436644 55.94515004 -0.09336853 54.23022461 C-0.08956908 49.73893739 -0.07976103 45.24768302 -0.06866455 40.75640869 C-0.05839486 36.16443323 -0.05385905 31.57245241 -0.04882812 26.98046875 C-0.03813622 17.98696481 -0.02109104 8.99348515 0 0 Z " fill="#01512C" transform="translate(363,416)"/>
<path d="M0 0 C4.46087449 3.86051829 9.12594332 7.95439344 12.29296875 12.984375 C12.29296875 13.644375 12.29296875 14.304375 12.29296875 14.984375 C13.30222412 14.95553223 14.31147949 14.92668945 15.35131836 14.89697266 C19.23986519 14.98319748 22.57261517 15.52374952 26.359375 16.3828125 C27.02274368 16.53299332 27.68611237 16.68317413 28.36958313 16.83790588 C30.53433038 17.33386267 32.69513688 17.84454178 34.85546875 18.359375 C35.60129211 18.53566437 36.34711548 18.71195374 37.11553955 18.89358521 C59.16259204 24.14407101 80.72611937 30.98618431 101.13916016 40.93603516 C103.2159226 41.94687374 105.30484495 42.92694862 107.3984375 43.90234375 C139.63559194 59.17174329 170.70083001 83.49575047 192.29296875 111.984375 C192.78120117 112.6232666 193.26943359 113.2621582 193.77246094 113.92041016 C201.50735991 124.10273462 208.27157153 134.51533617 214.18164062 145.85546875 C215.2264068 147.85686618 216.29621788 149.84279022 217.37109375 151.828125 C248.18042327 209.81817976 250.10914519 278.48122314 231.56738281 340.40771484 C228.81504408 349.07818105 224.8555907 357.20841367 220.85546875 365.359375 C220.41299805 366.26349121 219.97052734 367.16760742 219.51464844 368.09912109 C212.97483206 381.04795753 212.97483206 381.04795753 208.29296875 385.984375 C204.9765625 386.77734375 204.9765625 386.77734375 201.73046875 386.171875 C200.65667969 386.00042969 199.58289063 385.82898438 198.4765625 385.65234375 C197.42597656 385.43191406 196.37539063 385.21148438 195.29296875 384.984375 C193.29365536 384.64694783 191.29385607 384.31233999 189.29296875 383.984375 C189.54876709 383.41855713 189.80456543 382.85273926 190.06811523 382.26977539 C218.91091741 318.11397683 228.62804818 250.47866976 203.26123047 183.25 C193.80518581 159.26985193 181.3320911 136.43528489 164.29296875 116.984375 C163.61234375 116.19417969 162.93171875 115.40398437 162.23046875 114.58984375 C152.09261889 103.05431239 141.34332783 92.39779989 128.99462891 83.25048828 C127.37456035 82.0450829 125.7764373 80.81034752 124.1796875 79.57421875 C90.27424086 53.78779181 48.2660736 40.4416851 7.29296875 30.984375 C6.4014209 30.77441895 5.50987305 30.56446289 4.59130859 30.34814453 C-8.37920751 27.31477931 -21.46776737 25.41574167 -34.70703125 23.984375 C-35.58230469 23.88648682 -36.45757812 23.78859863 -37.359375 23.68774414 C-46.27541803 22.81038422 -55.19018241 22.798258 -64.140625 22.79907227 C-66.80615473 22.79689613 -69.47126234 22.77870621 -72.13671875 22.75976562 C-83.461321 22.72404504 -94.48430538 23.47484054 -105.70703125 24.984375 C-104.66063477 25.00419434 -103.61423828 25.02401367 -102.53613281 25.04443359 C-64.09898919 25.79810308 -28.59798522 29.4677096 7.85546875 42.671875 C8.64735596 42.95724121 9.43924316 43.24260742 10.25512695 43.53662109 C14.02507175 44.94782154 17.22411337 46.28996881 20.29296875 48.984375 C7.56432674 66.07079194 -6.24401084 79.80328983 -28.02734375 83.58203125 C-57.13699649 86.76493383 -80.70309228 76.33275356 -104.71582031 60.83203125 C-124.33006205 48.18802942 -143.53261132 38.82991193 -166.70703125 34.984375 C-166.70703125 34.324375 -166.70703125 33.664375 -166.70703125 32.984375 C-164.828125 31.2421875 -164.828125 31.2421875 -162.14453125 29.109375 C-161.13003906 28.30242187 -160.11554688 27.49546875 -159.0703125 26.6640625 C-158.24587646 26.01195801 -158.24587646 26.01195801 -157.40478516 25.34667969 C-155.70533174 23.98301129 -154.03845203 22.58696307 -152.375 21.1796875 C-110.06685132 -14.25435249 -47.57653342 -39.02939785 0 0 Z " fill="#A4C442" transform="translate(496.70703125,271.015625)"/>
<path d="M0 0 C-0.68175293 0.27038086 -1.36350586 0.54076172 -2.06591797 0.81933594 C-18.30550558 7.28482168 -34.25734893 14.15274684 -50.06689453 21.6171875 C-52.767807 22.89053262 -55.47429897 24.15086443 -58.18359375 25.40625 C-68.39348306 30.15654838 -78.39337416 35.23821724 -88.31542969 40.56201172 C-91.25029958 42.1340728 -94.19150372 43.69392795 -97.1328125 45.25390625 C-110.91928587 52.5919516 -124.48154645 60.24418584 -137.92675781 68.18847656 C-143.4392093 71.43779258 -148.97095211 74.65403586 -154.5 77.875 C-156.53132899 79.05976042 -158.56258666 80.24464312 -160.59375 81.4296875 C-162.0625 82.28645833 -163.53125 83.14322917 -165 84 C-162.00074658 85.58475045 -159.00045992 87.16753521 -156 88.75 C-155.16082031 89.1934375 -154.32164062 89.636875 -153.45703125 90.09375 C-151.7813092 90.97707635 -150.10292094 91.85536366 -148.421875 92.72851562 C-146.85828106 93.54940244 -145.30509635 94.39057958 -143.765625 95.25585938 C-143.07984375 95.63033203 -142.3940625 96.00480469 -141.6875 96.390625 C-141.09324219 96.72610352 -140.49898437 97.06158203 -139.88671875 97.40722656 C-136.44003144 98.49011434 -133.76536944 97.37930022 -130.62597656 95.82348633 C-129.80581055 95.33130615 -128.98564453 94.83912598 -128.140625 94.33203125 C-127.20323486 93.77588135 -126.26584473 93.21973145 -125.30004883 92.64672852 C-124.29353271 92.04143311 -123.2870166 91.4361377 -122.25 90.8125 C-120.07260003 89.52437444 -117.89418366 88.2379657 -115.71484375 86.953125 C-114.59835449 86.29376953 -113.48186523 85.63441406 -112.33154297 84.95507812 C-53.63387918 50.50902129 7.62936024 23.80656134 74.02075195 8.45849609 C75.3540438 8.14963682 76.68655551 7.83739256 78.01831055 7.52197266 C79.94227821 7.06764039 81.86953262 6.62729625 83.796875 6.1875 C84.89870117 5.93355469 86.00052734 5.67960938 87.13574219 5.41796875 C89.86033429 5.02038081 91.43774966 5.0874602 94 6 C92.78957031 6.40605469 92.78957031 6.40605469 91.5546875 6.8203125 C57.49470358 18.89678238 25.77785551 37.3456816 -5 56 C-5.57161865 56.34627441 -6.1432373 56.69254883 -6.73217773 57.04931641 C-20.00591891 65.09502249 -33.1697786 73.26149321 -46 82 C-47.9779437 83.3143423 -49.95708126 84.62689 -51.9375 85.9375 C-58.62819717 90.39796478 -65.24623266 94.96252168 -71.86523438 99.52832031 C-75.57418185 102.08522052 -79.28734589 104.63598637 -83 107.1875 C-84.35418483 108.11846316 -85.70835324 109.04945021 -87.0625 109.98046875 C-88.031875 110.64691406 -89.00125 111.31335938 -90 112 C-30.16596233 125.59864492 33.43299844 112.11802208 85.47265625 80.49755859 C98.29669646 72.39912507 110.50332191 63.44122339 121.66015625 53.15234375 C123.96430584 51.03283386 126.31995434 48.98564658 128.6875 46.9375 C132.14227347 43.86995158 135.21016098 40.65016761 138.19140625 37.125 C140.22064096 34.74075879 142.32520285 32.43588919 144.4375 30.125 C148.29247116 25.86006621 151.91594337 21.45214345 155.46875 16.93359375 C157 15 157 15 158 14 C168.93165218 13.4184609 179.96342369 14.34875831 190.875 15 C192.5455517 15.09672128 194.21612458 15.19307761 195.88671875 15.2890625 C199.9247348 15.52184893 203.96243489 15.75952408 208 16 C208 16.33 208 16.66 208 17 C191.17 17 174.34 17 157 17 C157 17.99 157 18.98 157 20 C156.34 20 155.68 20 155 20 C155 20.99 155 21.98 155 23 C154.34 23 153.68 23 153 23 C152.773125 23.53625 152.54625 24.0725 152.3125 24.625 C150.54429911 27.82460161 148.46329797 30.29037223 146 33 C145.34 33 144.68 33 144 33 C144 33.66 144 34.32 144 35 C143.34 35 142.68 35 142 35 C142 35.99 142 36.98 142 38 C139.77465403 40.5344218 137.86588626 42.57942667 134.8125 44.0625 C132.42469435 45.29757189 132.16389103 46.60375377 131 49 C128.5 51.75 128.5 51.75 126 54 C125.34 54 124.68 54 124 54 C123.62875 54.8971875 123.62875 54.8971875 123.25 55.8125 C121.81927475 58.31626919 120.4308418 59.48072388 118 61 C117.34 61 116.68 61 116 61 C116 61.66 116 62.32 116 63 C114.41113281 64.40454102 114.41113281 64.40454102 112.203125 66.00390625 C111.4090625 66.57947266 110.615 67.15503906 109.796875 67.74804688 C108.53617188 68.64620117 108.53617188 68.64620117 107.25 69.5625 C106.425 70.16513672 105.6 70.76777344 104.75 71.38867188 C97.96298307 76.26547194 97.96298307 76.26547194 94 77 C94 77.66 94 78.32 94 79 C93.48050781 79.25394531 92.96101563 79.50789062 92.42578125 79.76953125 C89.24949435 81.33712571 86.1531247 82.90679366 83.125 84.75 C81 86 81 86 79 86 C79 86.66 79 87.32 79 88 C77.73308493 88.67408308 76.46129251 89.33900497 75.1875 90 C74.47980469 90.37125 73.77210938 90.7425 73.04296875 91.125 C71 92 71 92 68 92 C68 92.66 68 93.32 68 94 C66.39850114 94.67305018 64.79368971 95.33822227 63.1875 96 C61.84751953 96.556875 61.84751953 96.556875 60.48046875 97.125 C58 98 58 98 55 98 C55 98.66 55 99.32 55 100 C46.82858192 103.16809057 38.74658578 106.25161312 30.2421875 108.421875 C28.4751214 108.87749483 26.73121369 109.42292877 25 110 C21.32987552 111.22337483 17.61507606 112.21808734 13.87890625 113.21875 C11.83885548 113.77235943 9.81338967 114.38104825 7.80078125 115.02734375 C3.08603722 116.23389181 -1.53537507 116.65978157 -6.375 117.0625 C-8.1748224 117.21608146 -9.97432925 117.37342364 -11.7734375 117.53515625 C-12.95558838 117.63389038 -12.95558838 117.63389038 -14.16162109 117.73461914 C-16.01438334 117.81477515 -16.01438334 117.81477515 -17 119 C-18.46275405 119.09822116 -19.93019289 119.12798364 -21.39624023 119.12939453 C-22.33068466 119.13254669 -23.26512909 119.13569885 -24.22789001 119.13894653 C-25.24452225 119.1369223 -26.26115448 119.13489807 -27.30859375 119.1328125 C-28.86417747 119.13424759 -28.86417747 119.13424759 -30.45118713 119.13571167 C-32.64950623 119.13639369 -34.84782732 119.13453791 -37.04614258 119.13037109 C-40.41947949 119.12502854 -43.79268292 119.1303126 -47.16601562 119.13671875 C-49.2968753 119.13605787 -51.42773488 119.13477649 -53.55859375 119.1328125 C-54.57320175 119.13483673 -55.58780975 119.13686096 -56.63316345 119.13894653 C-57.57076004 119.13579437 -58.50835663 119.13264221 -59.47436523 119.12939453 C-60.71560402 119.12820114 -60.71560402 119.12820114 -61.98191833 119.12698364 C-64 119 -64 119 -66 118 C-77.28561406 116.83484778 -88.60788359 116.89714819 -99.9375 117 C-102.96744334 117.02655904 -105.9973288 117.04645994 -109.02734375 117.0625 C-110.34468506 117.07410156 -111.66202637 117.08570313 -113.01928711 117.09765625 C-116 117 -116 117 -117 116 C-118.55644353 115.6775729 -120.12059745 115.39200582 -121.6875 115.125 C-129.08848438 113.67629667 -135.61567042 110.35963082 -141 105 C-142.1861085 102.57917199 -142.56855953 100.69650293 -143 98 C-143.70125 97.896875 -144.4025 97.79375 -145.125 97.6875 C-148.39137647 96.90640997 -151.0471852 95.57941257 -154 94 C-154 93.34 -154 92.68 -154 92 C-155.98 91.67 -157.96 91.34 -160 91 C-160 90.34 -160 89.68 -160 89 C-160.94875 88.896875 -161.8975 88.79375 -162.875 88.6875 C-172.02804944 87.35883153 -181.29347264 84.13768491 -189 79 C-189 78.34 -189 77.68 -189 77 C-190.98 76.505 -190.98 76.505 -193 76 C-193 75.34 -193 74.68 -193 74 C-193.61875 73.71125 -194.2375 73.4225 -194.875 73.125 C-198.19445213 71.36764299 -198.95918293 70.10204268 -200.375 66.5625 C-201.98164905 63.04023092 -202.88659189 62.0398191 -206 60 C-206 59.34 -206 58.68 -206 58 C-207.32 57.34 -208.64 56.68 -210 56 C-210 55.34 -210 54.68 -210 54 C-210.556875 53.773125 -211.11375 53.54625 -211.6875 53.3125 C-214.66159588 51.62449964 -216.72008865 49.53323483 -219 47 C-219 46.34 -219 45.68 -219 45 C-219.56203125 44.7628125 -220.1240625 44.525625 -220.703125 44.28125 C-223.51894042 42.71052303 -225.47955416 40.78528536 -227.75 38.5 C-228.54921875 37.7059375 -229.3484375 36.911875 -230.171875 36.09375 C-232 34 -232 34 -232 32 C-232.66 32 -233.32 32 -234 32 C-235.60634015 30.26608049 -237.1375287 28.461909 -238.625 26.625 C-239.44226563 25.62726562 -240.25953125 24.62953125 -241.1015625 23.6015625 C-243 21 -243 21 -243 19 C-243.66 19 -244.32 19 -245 19 C-245.33 18.34 -245.66 17.68 -246 17 C-254.58 17 -263.16 17 -272 17 C-272 16.67 -272 16.34 -272 16 C-268.81309767 15.66078548 -265.62539896 15.32970583 -262.4375 15 C-261.54224609 14.90460937 -260.64699219 14.80921875 -259.72460938 14.7109375 C-257.96064276 14.53001785 -256.19506877 14.36408355 -254.42822266 14.21386719 C-252.35983017 14.03169226 -250.29767836 13.78080178 -248.23828125 13.515625 C-243.382234 14.24198189 -241.65990534 16.99888309 -238.75 20.75 C-237.6095134 22.14050564 -236.46756626 23.52981454 -235.32421875 24.91796875 C-234.7626709 25.61196777 -234.20112305 26.3059668 -233.62255859 27.02099609 C-217.17786004 48.18762836 -217.17786004 48.18762836 -196 63 C-193.58947342 62.19519447 -193.58947342 62.19519447 -190.96875 60.859375 C-189.94531494 60.37154541 -188.92187988 59.88371582 -187.86743164 59.38110352 C-186.7561792 58.84283936 -185.64492676 58.3045752 -184.5 57.75 C-182.1152963 56.62427982 -179.72943541 55.50193595 -177.33984375 54.38671875 C-176.72733261 54.10058212 -176.11482147 53.8144455 -175.48374939 53.51963806 C-124.90746055 30.02363237 -70.30547191 12.85211917 -15.74853516 1.5703125 C-13.88077679 1.18275845 -12.01588206 0.78119457 -10.15380859 0.3671875 C-9.26129395 0.17382812 -8.3687793 -0.01953125 -7.44921875 -0.21875 C-6.66248779 -0.39341797 -5.87575684 -0.56808594 -5.06518555 -0.74804688 C-3 -1 -3 -1 0 0 Z " fill="#FCFDFC" transform="translate(533,672)"/>
<path d="M0 0 C24.75 0 49.5 0 75 0 C77.04739657 5.45972418 78.89109999 10.80140771 80.5078125 16.37890625 C83.25910734 25.70281336 86.20252167 34.96133761 89.1796875 44.21484375 C89.64530144 45.66489544 90.11081601 47.11497905 90.57623291 48.56509399 C92.49864805 54.5526314 94.42232415 60.53974076 96.35742188 66.52319336 C97.55712408 70.23360157 98.74976708 73.94621447 99.93780899 77.66037178 C100.3873027 79.06101306 100.83941956 80.46081549 101.29427719 81.85972404 C101.92534028 83.80138413 102.54662996 85.74621246 103.16748047 87.69116211 C103.52244598 88.79221786 103.8774115 89.89327362 104.24313354 91.0276947 C104.9574232 93.83279582 105.15646481 96.12336971 105 99 C84.90289789 101.09233044 84.90289789 101.09233044 79.39453125 96.6796875 C76.87865488 94.17424872 74.70536938 91.37682727 72.47216797 88.62060547 C54.73513355 69.09516028 24.39718685 64.28406247 0 63 C0 42.21 0 21.42 0 0 Z " fill="#FDFEFE" transform="translate(382,433)"/>
<path d="M0 0 C8.32245636 4.41701582 13.27971259 10.65270258 16.60546875 19.3828125 C19.06009509 27.60740464 17.73719963 34.83601918 14.21875 42.546875 C9.81017125 50.29658002 3.23351922 55.29198971 -5.21484375 57.95703125 C-13.72539978 59.61948754 -21.80476436 59.18885546 -29.34375 54.80859375 C-32.06337517 52.91780673 -34.24942839 50.90646292 -36.39453125 48.3828125 C-37.41546875 47.3309375 -37.41546875 47.3309375 -38.45703125 46.2578125 C-43.26915903 39.1172358 -45.69713209 30.95826806 -44.39453125 22.3828125 C-42.19354577 13.46882129 -37.17788831 6.65954721 -29.62890625 1.48828125 C-19.74668767 -4.03489589 -10.44135792 -4.30913184 0 0 Z " fill="#FBFDFC" transform="translate(402.39453125,571.6171875)"/>
<path d="M0 0 C0.99 1.485 0.99 1.485 2 3 C0.88625 3.20753906 -0.2275 3.41507812 -1.375 3.62890625 C-16.8407705 6.68178757 -30.01032153 11.94575378 -43 21 C-42.12601563 20.61328125 -41.25203125 20.2265625 -40.3515625 19.828125 C-25.14961161 13.30431276 -10.54890359 10.18833715 6 11 C3.85796297 20.58816576 -0.20238927 28.65094869 -8.375 34.4375 C-9.89277012 35.33344122 -11.43442114 36.19049421 -13 37 C-13.65226563 37.33902344 -14.30453125 37.67804688 -14.9765625 38.02734375 C-27.3382323 43.2058811 -41.92965286 39.77929901 -54.36157227 36.77929688 C-61.0247248 35.21057613 -67.15924275 34.69901337 -74 35 C-73.45064333 31.58055006 -72.69181159 29.0860824 -70.8125 26.1796875 C-70.36575928 25.48472168 -69.91901855 24.78975586 -69.45874023 24.07373047 C-68.97735596 23.34814941 -68.49597168 22.62256836 -68 21.875 C-67.5037915 21.12234863 -67.00758301 20.36969727 -66.49633789 19.59423828 C-57.98545582 6.84905261 -48.7614492 -4.9483491 -33.125 -8.6875 C-20.77805802 -9.9221942 -10.09205746 -7.58385531 0 0 Z " fill="#A3C341" transform="translate(591,349)"/>
<path d="M0 0 C2.46800047 1.15173355 4.04783565 2.04783565 6 4 C5.59465294 7.90072501 4.18094216 11.3620668 2.7421875 14.98828125 C2.28465088 16.15762207 1.82711426 17.32696289 1.35571289 18.53173828 C1.11386261 19.1479303 0.87201233 19.76412231 0.62283325 20.39898682 C-16.54845417 64.33590026 -23.98444161 109.01281855 -16 156 C-15.83371094 156.98274902 -15.66742188 157.96549805 -15.49609375 158.97802734 C-10.58927481 186.91509186 -0.82806183 212.82381223 14 237 C8.555 237.99 8.555 237.99 3 239 C-8.9167477 218.26542245 -16.05418811 196.07817658 -22 173 C-22.27432861 171.94619141 -22.27432861 171.94619141 -22.55419922 170.87109375 C-36.75356394 115.65622659 -27.16253743 51.18319679 -1 1 C-0.67 0.67 -0.34 0.34 0 0 Z " fill="#A2C23E" transform="translate(266,414)"/>
<path d="M0 0 C5.28410649 2.75642784 8.08002087 6.76740637 9.9296875 12.31640625 C10.29794974 17.93240541 10.14524757 21.49306614 6.9296875 26.31640625 C2.98804505 30.08667294 -0.53800354 33.26388121 -6.171875 33.34765625 C-11.46310071 32.99372811 -14.9599302 31.85324684 -19.0703125 28.31640625 C-23.12669604 22.94443886 -24.62372504 19.0680393 -24.0703125 12.31640625 C-22.26038638 7.04401278 -19.83578868 3.37119868 -15.0703125 0.31640625 C-10.21665609 -1.30147922 -4.91398121 -1.62254097 0 0 Z " fill="#FBFCFB" transform="translate(598.0703125,607.68359375)"/>
<path d="M0 0 C1.84658203 0.13535156 1.84658203 0.13535156 3.73046875 0.2734375 C6.8125 0.625 6.8125 0.625 8.8125 1.625 C10.36151337 1.87863325 11.91793006 2.08786495 13.4765625 2.2734375 C14.42644043 2.39017822 15.37631836 2.50691895 16.35498047 2.62719727 C17.88082764 2.81173462 17.88082764 2.81173462 19.4375 3 C32.04041315 4.58197612 44.44025212 6.73027996 56.8125 9.625 C57.79347656 9.85058594 58.77445313 10.07617188 59.78515625 10.30859375 C63.12832385 11.07764184 66.47039153 11.85136378 69.8125 12.625 C70.84375 12.8621875 71.875 13.099375 72.9375 13.34375 C75.04204275 13.82779483 77.14620314 14.31350477 79.25 14.80078125 C81.17402991 15.24592414 83.09823816 15.69031338 85.0234375 16.13037109 C87.37056158 16.66695407 89.7165757 17.20819852 92.0625 17.75 C92.8143457 17.92072021 93.56619141 18.09144043 94.34082031 18.26733398 C99.69900883 19.51150883 99.69900883 19.51150883 100.8125 20.625 C103.71132748 21.16910169 106.62233782 21.59020239 109.5390625 22.02734375 C112.33356345 22.53755693 114.99377916 23.20256689 117.71386719 24.01147461 C120.31613363 24.77223491 122.93200648 25.47394793 125.55078125 26.17578125 C126.61014893 26.45969727 127.6695166 26.74361328 128.76098633 27.03613281 C129.87111084 27.33358398 130.98123535 27.63103516 132.125 27.9375 C134.44799967 28.56349415 136.77091594 29.18979786 139.09375 29.81640625 C143.17466475 30.91693606 147.25765686 32.00871903 151.34375 33.08984375 C152.93758943 33.5178963 154.53134607 33.94625732 156.125 34.375 C156.84018799 34.56102783 157.55537598 34.74705566 158.29223633 34.9387207 C162.20269614 36.00106149 165.54421716 37.19678236 168.8125 39.625 C169.1425 40.615 169.4725 41.605 169.8125 42.625 C169.1525 42.625 168.4925 42.625 167.8125 42.625 C167.8125 43.285 167.8125 43.945 167.8125 44.625 C162.03716727 43.98840082 156.47750478 42.96049516 150.8125 41.6875 C143.34066448 40.05507194 135.93937699 38.9168996 128.34375 38.05859375 C124.48858578 37.58522735 120.73608036 36.88184383 116.94140625 36.06640625 C113.91381071 35.43866626 110.8777089 35.02480986 107.8125 34.625 C107.8125 33.965 107.8125 33.305 107.8125 32.625 C107.13445312 32.63660156 106.45640625 32.64820313 105.7578125 32.66015625 C99.41745545 32.72162786 93.08338185 32.67014697 86.8125 31.625 C86.4825 31.295 86.1525 30.965 85.8125 30.625 C83.8894127 30.3964679 81.95889772 30.22981143 80.02734375 30.08984375 C78.85751953 30.00283203 77.68769531 29.91582031 76.48242188 29.82617188 C74.63487305 29.6956543 74.63487305 29.6956543 72.75 29.5625 C71.51443359 29.47162109 70.27886719 29.38074219 69.00585938 29.28710938 C65.94168006 29.06232402 62.87725198 28.8418144 59.8125 28.625 C59.8125 27.965 59.8125 27.305 59.8125 26.625 C58.88050781 26.63660156 57.94851563 26.64820313 56.98828125 26.66015625 C38.86970949 26.7883969 38.86970949 26.7883969 31.8125 25.625 C31.1525 24.965 30.4925 24.305 29.8125 23.625 C39.631704 23.35224433 49.30203398 24.36250861 59.0625 25.3125 C60.44125809 25.44546478 60.44125809 25.44546478 61.84786987 25.58111572 C91.36769551 28.44640159 120.58288699 32.41358435 149.70507812 38.04003906 C152.73496753 38.61040479 155.76959025 39.12929649 158.8125 39.625 C118.52849617 27.50934658 77.32174994 16.25484206 35.82910156 9.1484375 C32.84535446 8.63070087 29.87209054 8.07265936 26.8984375 7.5 C13.93162247 5.01967302 0.91838202 3.20104677 -12.1875 1.625 C-12.1875 1.295 -12.1875 0.965 -12.1875 0.625 C-7.99065323 -0.44619518 -4.30503487 -0.33569292 0 0 Z " fill="#F4F8F7" transform="translate(711.1875,665.375)"/>
<path d="M0 0 C-2.98891098 1.64335918 -5.73176366 2.50146976 -9.06640625 3.19140625 C-10.60204224 3.51733765 -10.60204224 3.51733765 -12.16870117 3.84985352 C-13.28865479 4.08502686 -14.4086084 4.3202002 -15.5625 4.5625 C-39.97760926 9.88164185 -63.98672482 16.12246715 -87.75 23.875 C-88.61724701 24.15771759 -89.48449402 24.44043518 -90.37802124 24.73171997 C-92.85291028 25.54198326 -95.32548279 26.3588257 -97.796875 27.1796875 C-98.88839622 27.54015923 -98.88839622 27.54015923 -100.00196838 27.90791321 C-104.44093733 29.39892927 -108.7183909 31.10273908 -113 33 C-112.2786084 32.84442627 -111.5572168 32.68885254 -110.81396484 32.52856445 C-85.27168617 27.05234814 -59.65396903 22.6378149 -33.75 19.25 C-32.94459778 19.14299774 -32.13919556 19.03599548 -31.30938721 18.92575073 C-19.88307973 17.41825711 -8.5146595 16.49049637 3 16 C0.60411038 18.39588962 -0.20983116 18.32727153 -3.5 18.59765625 C-4.386875 18.67693359 -5.27375 18.75621094 -6.1875 18.83789062 C-7.115625 18.91201172 -8.04375 18.98613281 -9 19.0625 C-10.83362876 19.21657575 -12.66698279 19.37396796 -14.5 19.53515625 C-15.3146875 19.600979 -16.129375 19.66680176 -16.96875 19.73461914 C-19.06416327 19.89559261 -19.06416327 19.89559261 -21 21 C-22.5797773 21.20772782 -24.16607612 21.36717433 -25.75390625 21.5 C-26.69041016 21.5825 -27.62691406 21.665 -28.59179688 21.75 C-30.57614443 21.91699309 -32.56051959 22.08365849 -34.54492188 22.25 C-35.48013672 22.3325 -36.41535156 22.415 -37.37890625 22.5 C-38.2407251 22.5721875 -39.10254395 22.644375 -39.99047852 22.71875 C-41.99429447 22.79353751 -41.99429447 22.79353751 -43 24 C-44.32668532 24.21321728 -45.66259619 24.36997463 -47 24.5 C-48.2065625 24.62375 -48.2065625 24.62375 -49.4375 24.75 C-51.14583333 24.91666667 -52.85416667 25.08333333 -54.5625 25.25 C-55.7690625 25.37375 -55.7690625 25.37375 -57 25.5 C-57.7425 25.5721875 -58.485 25.644375 -59.25 25.71875 C-61.02383001 25.8285148 -61.02383001 25.8285148 -62 27 C-64.35422703 27.30601921 -66.70172392 27.56865108 -69.0625 27.8125 C-75.6134413 28.55046793 -81.82827538 29.83877902 -88.19189453 31.53393555 C-93.46015429 32.91953334 -98.69840432 33.8170203 -104.08984375 34.55859375 C-106.78028411 34.96667397 -109.36114801 35.53104753 -112 36.1875 C-115.29312835 36.96984541 -117.70788007 37.06197417 -121 36 C-121 35.01 -121 34.02 -121 33 C-117.80984665 29.88271817 -113.74231414 28.55894564 -109.625 27.0625 C-108.92036621 26.80235107 -108.21573242 26.54220215 -107.48974609 26.27416992 C-101.79779701 24.20941826 -96.04165555 22.47108686 -90.19921875 20.87890625 C-86.4924635 19.8605669 -82.83814148 18.70636152 -79.18359375 17.515625 C-76.72874755 16.93594754 -74.51363525 16.91164727 -72 17 C-72 16.34 -72 15.68 -72 15 C-71.26394531 14.87882813 -70.52789062 14.75765625 -69.76953125 14.6328125 C-68.79371094 14.46523438 -67.81789062 14.29765625 -66.8125 14.125 C-65.36810547 13.88136719 -65.36810547 13.88136719 -63.89453125 13.6328125 C-61.07398996 13.01617594 -58.66344082 12.09695535 -56 11 C-49.64414731 9.11229443 -43.65098164 7.54652398 -37 8 C-37 7.34 -37 6.68 -37 6 C-36.27554688 5.87882813 -35.55109375 5.75765625 -34.8046875 5.6328125 C-29.69127611 4.74648786 -24.90845022 3.70728703 -20 2 C-17.72307854 1.45081296 -15.43953582 0.95119971 -13.1484375 0.46484375 C-11.74187539 0.16051486 -10.34407319 -0.18848472 -8.9609375 -0.5859375 C-5.88650775 -1.23511988 -3.06180887 -0.52992846 0 0 Z " fill="#F3F8F6" transform="translate(258,673)"/>
<path d="M0 0 C10.15298423 0.02342433 20.24604276 0.52807631 30.37841797 1.1328125 C32.04896967 1.22953378 33.71954254 1.32589011 35.39013672 1.421875 C39.42815277 1.65466143 43.46585286 1.89233658 47.50341797 2.1328125 C47.50341797 2.4628125 47.50341797 2.7928125 47.50341797 3.1328125 C30.67341797 3.1328125 13.84341797 3.1328125 -3.49658203 3.1328125 C-3.49658203 4.1228125 -3.49658203 5.1128125 -3.49658203 6.1328125 C-4.15658203 6.1328125 -4.81658203 6.1328125 -5.49658203 6.1328125 C-5.49658203 7.1228125 -5.49658203 8.1128125 -5.49658203 9.1328125 C-6.15658203 9.1328125 -6.81658203 9.1328125 -7.49658203 9.1328125 C-7.83689453 9.9371875 -7.83689453 9.9371875 -8.18408203 10.7578125 C-9.95228292 13.95741411 -12.03328406 16.42318473 -14.49658203 19.1328125 C-15.15658203 19.1328125 -15.81658203 19.1328125 -16.49658203 19.1328125 C-16.49658203 19.7928125 -16.49658203 20.4528125 -16.49658203 21.1328125 C-17.15658203 21.1328125 -17.81658203 21.1328125 -18.49658203 21.1328125 C-18.49658203 22.1228125 -18.49658203 23.1128125 -18.49658203 24.1328125 C-20.72192801 26.6672343 -22.63069577 28.71223917 -25.68408203 30.1953125 C-28.07188768 31.43038439 -28.332691 32.73656627 -29.49658203 35.1328125 C-31.99658203 37.8828125 -31.99658203 37.8828125 -34.49658203 40.1328125 C-35.15658203 40.1328125 -35.81658203 40.1328125 -36.49658203 40.1328125 C-36.86783203 41.03 -36.86783203 41.03 -37.24658203 41.9453125 C-38.67730728 44.44908169 -40.06574024 45.61353638 -42.49658203 47.1328125 C-43.15658203 47.1328125 -43.81658203 47.1328125 -44.49658203 47.1328125 C-44.49658203 47.7928125 -44.49658203 48.4528125 -44.49658203 49.1328125 C-46.08544922 50.53735352 -46.08544922 50.53735352 -48.29345703 52.13671875 C-49.48455078 53.00006836 -49.48455078 53.00006836 -50.69970703 53.88085938 C-51.54017578 54.47962891 -52.38064453 55.07839844 -53.24658203 55.6953125 C-54.07158203 56.29794922 -54.89658203 56.90058594 -55.74658203 57.52148438 C-62.53359896 62.39828444 -62.53359896 62.39828444 -66.49658203 63.1328125 C-66.49658203 63.7928125 -66.49658203 64.4528125 -66.49658203 65.1328125 C-67.01607422 65.38675781 -67.53556641 65.64070312 -68.07080078 65.90234375 C-71.24708768 67.46993821 -74.34345733 69.03960616 -77.37158203 70.8828125 C-79.49658203 72.1328125 -79.49658203 72.1328125 -81.49658203 72.1328125 C-81.49658203 72.7928125 -81.49658203 73.4528125 -81.49658203 74.1328125 C-82.76349711 74.80689558 -84.03528952 75.47181747 -85.30908203 76.1328125 C-86.01677734 76.5040625 -86.72447266 76.8753125 -87.45361328 77.2578125 C-89.49658203 78.1328125 -89.49658203 78.1328125 -92.49658203 78.1328125 C-92.49658203 78.7928125 -92.49658203 79.4528125 -92.49658203 80.1328125 C-94.09808089 80.80586268 -95.70289233 81.47103477 -97.30908203 82.1328125 C-98.20240234 82.5040625 -99.09572266 82.8753125 -100.01611328 83.2578125 C-102.49658203 84.1328125 -102.49658203 84.1328125 -105.49658203 84.1328125 C-105.49658203 84.7928125 -105.49658203 85.4528125 -105.49658203 86.1328125 C-113.66800011 89.30090307 -121.74999625 92.38442562 -130.25439453 94.5546875 C-132.02146063 95.01030733 -133.76536834 95.55574127 -135.49658203 96.1328125 C-139.16670651 97.35618733 -142.88150597 98.35089984 -146.61767578 99.3515625 C-148.65772655 99.90517193 -150.68319236 100.51386075 -152.69580078 101.16015625 C-157.41054481 102.36670431 -162.0319571 102.79259407 -166.87158203 103.1953125 C-168.67140443 103.34889396 -170.47091128 103.50623614 -172.27001953 103.66796875 C-173.45217041 103.76670288 -173.45217041 103.76670288 -174.65820312 103.86743164 C-176.51096537 103.94758765 -176.51096537 103.94758765 -177.49658203 105.1328125 C-182.57112718 105.4960431 -187.5131566 105.15505361 -192.49658203 104.1328125 C-192.49658203 103.8028125 -192.49658203 103.4728125 -192.49658203 103.1328125 C-191.75424316 103.07335449 -191.0119043 103.01389648 -190.24707031 102.95263672 C-134.13814643 98.27473933 -80.62763074 77.82518157 -38.83642578 39.28515625 C-36.53227619 37.16564636 -34.17662769 35.11845908 -31.80908203 33.0703125 C-28.35430856 30.00276408 -25.28642105 26.78298011 -22.30517578 23.2578125 C-20.27594107 20.87357129 -18.17137918 18.56870169 -16.05908203 16.2578125 C-12.20411087 11.99287871 -8.58063866 7.58495595 -5.02783203 3.06640625 C-2.71381447 0.14436877 -2.71381447 0.14436877 0 0 Z " fill="#F0F6F4" transform="translate(693.49658203125,685.8671875)"/>
<path d="M0 0 C3.14731257 1.6564803 5.23306045 4.03298926 7.4375 6.8125 C8.34249067 10.33190817 8.08004183 13.57647117 7 17 C4.5 19.9375 4.5 19.9375 2 22 C1.67 22.33 1.34 22.66 1 23 C-4.07779636 23.51970735 -8.53048714 23.80973158 -13.0625 21.3125 C-16.13644675 17.64359581 -17.02514431 15.38293679 -16.9375 10.5625 C-15.76192992 6.09533368 -14.20335403 4.28148461 -11 1 C-7.51096194 -0.74451903 -3.80658999 -0.57578672 0 0 Z " fill="#044F2A" transform="translate(393,588)"/>
<path d="M0 0 C5.55720976 0.58554167 10.7248211 1.58278686 16.09375 3.109375 C16.84354126 3.31806213 17.59333252 3.52674927 18.36584473 3.74176025 C19.94647173 4.18290075 21.52633951 4.62676989 23.10546875 5.07324219 C25.46445077 5.73995285 27.82568834 6.39808016 30.1875 7.0546875 C40.18630527 9.84851746 50.10965295 12.84444376 60 16 C56.79273988 17.06908671 55.92811629 16.95679372 52.7578125 16.21484375 C51.87351562 16.01656982 50.98921875 15.8182959 50.078125 15.61401367 C48.61632812 15.2791394 48.61632812 15.2791394 47.125 14.9375 C35.80859259 12.44950188 24.43903144 10.51137459 13 8.6875 C12.15729553 8.55294403 11.31459106 8.41838806 10.4463501 8.27975464 C5.63204012 7.51248975 0.81656422 6.7529781 -4 6 C-4 5.67 -4 5.34 -4 5 C-2.02 4.67 -0.04 4.34 2 4 C2 3.34 2 2.68 2 2 C1.34 1.34 0.68 0.68 0 0 Z " fill="#04431F" transform="translate(816,690)"/>
<path d="M0 0 C0 0.66 0 1.32 0 2 C-1.65 2.66 -3.3 3.32 -5 4 C-5 4.33 -5 4.66 -5 5 C-2.525 5.495 -2.525 5.495 0 6 C-3.50382304 8.02718076 -6.93219539 8.71595881 -10.890625 9.47265625 C-11.55406921 9.60063095 -12.21751343 9.72860565 -12.90106201 9.86045837 C-14.3024858 10.12957296 -15.70445979 10.39583604 -17.10693359 10.65942383 C-19.23013933 11.05876453 -21.35146526 11.46705995 -23.47265625 11.87695312 C-29.96247333 13.12082517 -36.42526993 14.31016433 -43 15 C-40.55443078 13.36962052 -38.90175275 12.50248696 -36.20288086 11.57958984 C-35.44877426 11.31947113 -34.69466766 11.05935242 -33.91770935 10.79135132 C-33.1082637 10.51731476 -32.29881805 10.2432782 -31.46484375 9.9609375 C-30.21315147 9.53235947 -30.21315147 9.53235947 -28.93617249 9.09512329 C-27.17422837 8.49295824 -25.41154865 7.8929419 -23.64819336 7.29492188 C-20.94254611 6.37671249 -18.23969938 5.45060162 -15.53710938 4.5234375 C-13.82568166 3.93963249 -12.11409831 3.35628347 -10.40234375 2.7734375 C-9.59087387 2.49535248 -8.77940399 2.21726746 -7.94334412 1.93075562 C-2.23086468 0 -2.23086468 0 0 0 Z " fill="#073E1D" transform="translate(184,692)"/>
<path d="M0 0 C4.85531401 0.72624721 6.57944598 3.48274656 9.48828125 7.234375 C10.61415065 8.61209656 11.7417841 9.98837824 12.87109375 11.36328125 C13.71075684 12.40186279 13.71075684 12.40186279 14.56738281 13.46142578 C17.0533409 16.47116404 19.69582941 19.32333342 22.36328125 22.171875 C25.16583153 25.17817151 27.8431036 28.14208462 30.23828125 31.484375 C25.96366886 30.99499181 23.91277059 28.52694674 20.98828125 25.546875 C20.09625 24.65097656 19.20421875 23.75507812 18.28515625 22.83203125 C16.23828125 20.484375 16.23828125 20.484375 16.23828125 18.484375 C15.57828125 18.484375 14.91828125 18.484375 14.23828125 18.484375 C12.6319411 16.75045549 11.10075255 14.946284 9.61328125 13.109375 C8.79601562 12.11164062 7.97875 11.11390625 7.13671875 10.0859375 C5.23828125 7.484375 5.23828125 7.484375 5.23828125 5.484375 C4.57828125 5.484375 3.91828125 5.484375 3.23828125 5.484375 C2.90828125 4.824375 2.57828125 4.164375 2.23828125 3.484375 C-6.34171875 3.484375 -14.92171875 3.484375 -23.76171875 3.484375 C-23.76171875 3.154375 -23.76171875 2.824375 -23.76171875 2.484375 C-20.57481642 2.14516048 -17.38711771 1.81408083 -14.19921875 1.484375 C-13.30396484 1.38898437 -12.40871094 1.29359375 -11.48632812 1.1953125 C-9.72236151 1.01439285 -7.95678752 0.84845855 -6.18994141 0.69824219 C-4.12154892 0.51606726 -2.05939711 0.26517678 0 0 Z " fill="#F6FAF9" transform="translate(284.76171875,685.515625)"/>
<path d="M0 0 C0 3 0 3 -1.2421875 4.60546875 C-1.78101563 5.12753906 -2.31984375 5.64960937 -2.875 6.1875 C-3.40867187 6.71730469 -3.94234375 7.24710938 -4.4921875 7.79296875 C-6 9 -6 9 -8 9 C-8.2475 9.598125 -8.495 10.19625 -8.75 10.8125 C-10.18072525 13.31626919 -11.5691582 14.48072388 -14 16 C-14.66 16 -15.32 16 -16 16 C-16 16.66 -16 17.32 -16 18 C-17.58886719 19.40454102 -17.58886719 19.40454102 -19.796875 21.00390625 C-20.5909375 21.57947266 -21.385 22.15503906 -22.203125 22.74804688 C-23.04359375 23.34681641 -23.8840625 23.94558594 -24.75 24.5625 C-25.575 25.16513672 -26.4 25.76777344 -27.25 26.38867188 C-34.03701693 31.26547194 -34.03701693 31.26547194 -38 32 C-38 32.66 -38 33.32 -38 34 C-39.98 34.495 -39.98 34.495 -42 35 C-40.47513627 30.84381653 -37.88527492 29.30929522 -34.25 26.9375 C-29.13021647 23.52382656 -24.20625416 19.93670434 -19.375 16.125 C-18.48796387 15.4287854 -18.48796387 15.4287854 -17.58300781 14.71850586 C-14.90765221 12.59722028 -12.39719445 10.42715938 -10 8 C-9.21625 7.54625 -8.4325 7.0925 -7.625 6.625 C-4.62478988 4.76772707 -2.41743843 2.55557777 0 0 Z " fill="#F2F7F5" transform="translate(665,717)"/>
<path d="M0 0 C7.51214312 0.58572403 14.34343032 2.78576712 21.5 5.0625 C22.70398438 5.43955078 23.90796875 5.81660156 25.1484375 6.20507812 C28.1009244 7.13065934 31.05129861 8.06244294 34 9 C30.58337038 10.13887654 29.24024341 9.82515036 25.7734375 9.07421875 C24.74089844 8.85443359 23.70835937 8.63464844 22.64453125 8.40820312 C21.56558594 8.17037109 20.48664062 7.93253906 19.375 7.6875 C18.31925781 7.46126953 17.26351562 7.23503906 16.17578125 7.00195312 C10.11059473 5.6979756 4.05467772 4.35183056 -2 3 C-1.34 2.01 -0.68 1.02 0 0 Z " fill="#1B462B" transform="translate(842,697)"/>
<path d="M0 0 C-5.35601273 3.2509132 -10.21563299 3.67920757 -16.3125 4.125 C-18.12139568 4.26971165 -19.93001368 4.41795293 -21.73828125 4.5703125 C-22.92997925 4.65949951 -22.92997925 4.65949951 -24.14575195 4.75048828 C-26.01310211 4.81093854 -26.01310211 4.81093854 -27 6 C-32.07454515 6.3632306 -37.01657457 6.02224111 -42 5 C-42 4.67 -42 4.34 -42 4 C-40.75295288 3.87939209 -40.75295288 3.87939209 -39.48071289 3.75634766 C-36.35477185 3.45134596 -33.22937468 3.14135297 -30.10424805 2.828125 C-28.10307388 2.62903653 -26.10134456 2.43555374 -24.09960938 2.2421875 C-15.89251301 1.41828122 -15.89251301 1.41828122 -7.80859375 -0.1640625 C-4.28709142 -0.93698712 -3.22419191 -1.01054761 0 0 Z " fill="#E7F0ED" transform="translate(543,785)"/>
<path d="M0 0 C-3.63 1.32 -7.26 2.64 -11 4 C-10.67 4.66 -10.34 5.32 -10 6 C-13.57989022 6.86905722 -17.16433193 7.71762696 -20.75 8.5625 C-21.76578125 8.80935547 -22.7815625 9.05621094 -23.828125 9.31054688 C-24.8078125 9.53935547 -25.7875 9.76816406 -26.796875 10.00390625 C-27.69760742 10.21861572 -28.59833984 10.4333252 -29.52636719 10.65454102 C-32.04298464 11.00600309 -33.61250145 10.80151737 -36 10 C-31.52065816 8.4014853 -27.03668309 6.81703107 -22.54785156 5.24536133 C-21.02175916 4.70882927 -19.49699951 4.16849049 -17.97363281 3.62426758 C-15.78269933 2.84230142 -13.58732522 2.07418613 -11.390625 1.30859375 C-10.7113092 1.06282089 -10.03199341 0.81704803 -9.33209229 0.56382751 C-5.5214325 -0.74715428 -4.04544891 -1.01136223 0 0 Z " fill="#053311" transform="translate(177,696)"/>
<path d="M0 0 C-3.54082916 2.1244975 -6.94991891 2.46508363 -11 3 C-11.33 3.33 -11.66 3.66 -12 4 C-14.58428667 4.37761266 -17.15589304 4.70770626 -19.75 5 C-24.20287338 5.51256096 -28.61759606 6.03380071 -33 7 C-33.33 6.01 -33.66 5.02 -34 4 C-29.80253464 3.25915879 -25.60337989 2.52908434 -21.40234375 1.80883789 C-19.97409939 1.56242686 -18.54635412 1.31310431 -17.11914062 1.06079102 C-15.06505284 0.69817872 -13.00938525 0.34614855 -10.953125 -0.00390625 C-9.71723633 -0.21861572 -8.48134766 -0.4333252 -7.20800781 -0.65454102 C-4.36377289 -0.96082659 -2.65273658 -0.95278421 0 0 Z " fill="#EAF1ED" transform="translate(208,696)"/>
<path d="M0 0 C1.99609375 1.75 1.99609375 1.75 3.4375 4 C3.93121094 4.7425 4.42492187 5.485 4.93359375 6.25 C5.28550781 6.8275 5.63742187 7.405 6 8 C5.01 8 4.02 8 3 8 C2.67 7.01 2.34 6.02 2 5 C1.34 5 0.68 5 0 5 C-0.33 4.34 -0.66 3.68 -1 3 C-9.58 3 -18.16 3 -27 3 C-27 2.67 -27 2.34 -27 2 C-23.81309767 1.66078548 -20.62539896 1.32970583 -17.4375 1 C-16.54224609 0.90460937 -15.64699219 0.80921875 -14.72460938 0.7109375 C-3.90644981 -0.39861733 -3.90644981 -0.39861733 0 0 Z " fill="#E9F3EF" transform="translate(288,686)"/>
<path d="M0 0 C0 3 0 3 -1.2421875 4.60546875 C-1.78101563 5.12753906 -2.31984375 5.64960937 -2.875 6.1875 C-3.40867187 6.71730469 -3.94234375 7.24710938 -4.4921875 7.79296875 C-6 9 -6 9 -8 9 C-8.2475 9.598125 -8.495 10.19625 -8.75 10.8125 C-10.18072525 13.31626919 -11.5691582 14.48072388 -14 16 C-14.66 16 -15.32 16 -16 16 C-16 16.66 -16 17.32 -16 18 C-18 19.625 -18 19.625 -20 21 C-20.66 20.67 -21.32 20.34 -22 20 C-17.78557014 14.63618017 -13.27524749 9.94955208 -7.375 6.4375 C-4.45993817 4.67312047 -2.33307499 2.46639357 0 0 Z " fill="#FBFDFC" transform="translate(665,717)"/>
<path d="M0 0 C11.88 1.485 11.88 1.485 24 3 C23.01 3.495 23.01 3.495 22 4 C22 4.66 22 5.32 22 6 C18.7 5.67 15.4 5.34 12 5 C12 4.34 12 3.68 12 3 C8.37 3 4.74 3 1 3 C0.67 2.01 0.34 1.02 0 0 Z " fill="#ECF3F0" transform="translate(807,695)"/>
<path d="M0 0 C4.96916636 0.51405169 9.29026351 1.23384882 14 3 C13.360625 3.28875 12.72125 3.5775 12.0625 3.875 C9.84793921 4.82823451 9.84793921 4.82823451 9 7 C4.48382401 7.07654536 0.40914783 7.10228696 -4 6 C-4 5.67 -4 5.34 -4 5 C-2.02 4.67 -0.04 4.34 2 4 C2 3.34 2 2.68 2 2 C1.34 1.34 0.68 0.68 0 0 Z " fill="#053D1A" transform="translate(816,690)"/>
<path d="M0 0 C0 0.33 0 0.66 0 1 C6.93 1.495 6.93 1.495 14 2 C14 2.33 14 2.66 14 3 C2.78 3 -8.44 3 -20 3 C-20 2.67 -20 2.34 -20 2 C-17.79248152 1.66131223 -15.58394089 1.32928311 -13.375 1 C-12.14523437 0.814375 -10.91546875 0.62875 -9.6484375 0.4375 C-6.3833973 0.04597484 -3.28287549 -0.08080924 0 0 Z " fill="#E4EDC9" transform="translate(405,294)"/>
<path d="M0 0 C-1.64548828 0.61488281 -1.64548828 0.61488281 -3.32421875 1.2421875 C-4.77865686 1.78642886 -6.23308333 2.33070133 -7.6875 2.875 C-8.40873047 3.14441406 -9.12996094 3.41382813 -9.87304688 3.69140625 C-13.59946483 5.08668603 -17.31324655 6.50202917 -21 8 C-21.33 6.35 -21.66 4.7 -22 3 C-19.08559401 2.3013821 -16.16913913 1.6157969 -13.25 0.9375 C-12.425 0.73833984 -11.6 0.53917969 -10.75 0.33398438 C-9.55117188 0.05844727 -9.55117188 0.05844727 -8.328125 -0.22265625 C-7.5949707 -0.39547119 -6.86181641 -0.56828613 -6.10644531 -0.74633789 C-3.79867217 -1.02424428 -2.20083963 -0.69809241 0 0 Z " fill="#E1EDE8" transform="translate(627,678)"/>
<path d="M0 0 C0.66 0 1.32 0 2 0 C2 3 2 3 -0.375 5.5625 C-1.24125 6.366875 -2.1075 7.17125 -3 8 C-3.66 8.66 -4.32 9.32 -5 10 C-5.99 9.67 -6.98 9.34 -8 9 C-6.71520959 7.49410612 -5.42195918 5.99542625 -4.125 4.5 C-3.04605469 3.24703125 -3.04605469 3.24703125 -1.9453125 1.96875 C-1.30335938 1.3190625 -0.66140625 0.669375 0 0 Z M-15 15 C-14.34 15.33 -13.68 15.66 -13 16 C-14.98 16.99 -14.98 16.99 -17 18 C-16.34 17.01 -15.68 16.02 -15 15 Z " fill="#E9F1EE" transform="translate(673,707)"/>
<path d="M0 0 C3.92297846 0.56340648 6.49080356 1.70090379 9.75 3.9375 C10.52859375 4.46214844 11.3071875 4.98679687 12.109375 5.52734375 C14 7 14 7 15 9 C11.32589215 10.17571451 7.83070817 10.07366746 4 10 C5.32 9.67 6.64 9.34 8 9 C8 7.68 8 6.36 8 5 C5.36 3.68 2.72 2.36 0 1 C0 0.67 0 0.34 0 0 Z " fill="#98BA2B" transform="translate(578,343)"/>
<path d="M0 0 C1.09570312 0.10183594 2.19140625 0.20367188 3.3203125 0.30859375 C4.16335938 0.39238281 5.00640625 0.47617187 5.875 0.5625 C6.205 1.5525 6.535 2.5425 6.875 3.5625 C-2.20192308 4.94711538 -2.20192308 4.94711538 -6.125 3.5625 C-6.785 2.5725 -7.445 1.5825 -8.125 0.5625 C-5.28943413 -0.85528293 -3.1341294 -0.30007622 0 0 Z " fill="#0B5430" transform="translate(837.125,695.4375)"/>
<path d="M0 0 C0.66 0.33 1.32 0.66 2 1 C-1.33333333 4.33333333 -4.66666667 7.66666667 -8 11 C-7.01 11.66 -6.02 12.32 -5 13 C-7.64 13 -10.28 13 -13 13 C-13 12.34 -13 11.68 -13 11 C-11.25998065 9.44038399 -9.45696803 7.95050425 -7.625 6.5 C-3.68517459 3.39240862 -3.68517459 3.39240862 0 0 Z " fill="#9ABC2D" transform="translate(343,293)"/>
<path d="M0 0 C-3.01490557 2.00993705 -5.2149927 2.72623341 -8.6875 3.625 C-9.68136719 3.88539063 -10.67523438 4.14578125 -11.69921875 4.4140625 C-12.45847656 4.60742188 -13.21773437 4.80078125 -14 5 C-13.20703125 3.08203125 -13.20703125 3.08203125 -12 1 C-7.64738999 -0.72461906 -4.51257994 -1.36744847 0 0 Z " fill="#EEF4F1" transform="translate(176,694)"/>
<path d="M0 0 C2.48046875 0.14453125 2.48046875 0.14453125 5.1875 0.8125 C6.53908203 1.13154297 6.53908203 1.13154297 7.91796875 1.45703125 C8.60503906 1.63621094 9.29210937 1.81539062 10 2 C10.33 2.99 10.66 3.98 11 5 C6.38 4.34 1.76 3.68 -3 3 C-2.01 2.01 -1.02 1.02 0 0 Z " fill="#E8F0EC" transform="translate(736,669)"/>
<path d="M0 0 C0.66 0.66 1.32 1.32 2 2 C-3.94 1.34 -9.88 0.68 -16 0 C-16 -0.33 -16 -0.66 -16 -1 C-10.55972028 -2.31885569 -4.87516243 -3.25010829 0 0 Z " fill="#E7F0ED" transform="translate(715,667)"/>
<path d="M0 0 C0 3.54404336 -0.60989485 4.10267905 -2.875 6.6875 C-3.40867187 7.31011719 -3.94234375 7.93273437 -4.4921875 8.57421875 C-6 10 -6 10 -8 10 C-8 10.66 -8 11.32 -8 12 C-8.99 11.67 -9.98 11.34 -11 11 C-7.6189962 6.86378916 -4.33409466 3.18683431 0 0 Z " fill="#F9FBFA" transform="translate(685,695)"/>
<path d="M0 0 C0.66 0.33 1.32 0.66 2 1 C1.67 1.66 1.34 2.32 1 3 C0.01 3 -0.98 3 -2 3 C-2 3.66 -2 4.32 -2 5 C-8.625 8 -8.625 8 -12 8 C-12 7.34 -12 6.68 -12 6 C-10.04669132 4.96958487 -8.08718472 3.9509107 -6.125 2.9375 C-5.03445313 2.36902344 -3.94390625 1.80054688 -2.8203125 1.21484375 C-1.42425781 0.61349609 -1.42425781 0.61349609 0 0 Z " fill="#E9F1EE" transform="translate(603,761)"/>
<path d="M0 0 C0.33 0.99 0.66 1.98 1 3 C-1.08047297 3.5321441 -3.16452293 4.05031786 -5.25 4.5625 C-6.41015625 4.85253906 -7.5703125 5.14257812 -8.765625 5.44140625 C-11.72090983 5.95179964 -13.24434101 6.02996165 -16 5 C-13.70967689 4.16280617 -11.41789043 3.3301071 -9.125 2.5 C-8.47402344 2.26152344 -7.82304687 2.02304687 -7.15234375 1.77734375 C-2.2265625 0 -2.2265625 0 0 0 Z " fill="#193F24" transform="translate(157,701)"/>
<path d="M0 0 C5.78591511 -0.10477512 11.29309366 0.00749455 17 1 C17 1.66 17 2.32 17 3 C15.52093108 3.02689216 14.04172517 3.04634621 12.5625 3.0625 C11.32693359 3.07990234 11.32693359 3.07990234 10.06640625 3.09765625 C8 3 8 3 7 2 C4.67182036 1.63239269 2.3381615 1.29758419 0 1 C0 0.67 0 0.34 0 0 Z " fill="#FBFDFC" transform="translate(790,694)"/>
<path d="M0 0 C0 0.33 0 0.66 0 1 C-5.56069582 3.25433614 -11.0785651 3.59961828 -17 4 C-16.67 3.34 -16.34 2.68 -16 2 C-10.47570753 0.25548659 -5.77149626 -0.20612487 0 0 Z " fill="#FBFCFC" transform="translate(221,694)"/>
<path d="M0 0 C0 0.33 0 0.66 0 1 C-1.98 1 -3.96 1 -6 1 C-6 1.66 -6 2.32 -6 3 C-8.97 3 -11.94 3 -15 3 C-15.33 2.34 -15.66 1.68 -16 1 C-10.63904667 -0.12862175 -5.44693314 -0.09688221 0 0 Z " fill="#093E1D" transform="translate(362,657)"/>
<path d="M0 0 C0 0.33 0 0.66 0 1 C-1.093125 1.309375 -2.18625 1.61875 -3.3125 1.9375 C-5.55407994 2.58337897 -7.7869351 3.2623117 -10 4 C-12.6875 3.5625 -12.6875 3.5625 -15 3 C-13.67661368 2.31379969 -12.34050052 1.65213539 -11 1 C-10.21625 0.608125 -9.4325 0.21625 -8.625 -0.1875 C-5.40932399 -1.18282829 -3.24265162 -0.75410503 0 0 Z " fill="#085D36" transform="translate(177,698)"/>
<path d="M0 0 C-0.33 0.99 -0.66 1.98 -1 3 C-3.97 2.67 -6.94 2.34 -10 2 C-10 1.01 -10 0.02 -10 -1 C-6.18510326 -2.46726798 -3.70988378 -1.43336419 0 0 Z " fill="#0A5933" transform="translate(188,696)"/>
<path d="M0 0 C0.66 0.33 1.32 0.66 2 1 C1 4 1 4 -0.99609375 5.203125 C-1.80175781 5.54859375 -2.60742188 5.8940625 -3.4375 6.25 C-4.24058594 6.60578125 -5.04367187 6.9615625 -5.87109375 7.328125 C-8 8 -8 8 -10 7 C-6.7 4.69 -3.4 2.38 0 0 Z " fill="#F2F6E3" transform="translate(557,363)"/>
<path d="M0 0 C-3.53411321 2.12046792 -6.94393835 2.53199289 -11 3 C-10.67 2.01 -10.34 1.02 -10 0 C-6.30581799 -1.231394 -3.7943739 -0.64432764 0 0 Z " fill="#F1F7F4" transform="translate(258,673)"/>
<path d="M0 0 C1.92106808 3.84213617 -0.85064134 8.54362631 -2.125 12.4375 C-2.41375 13.283125 -2.7025 14.12875 -3 15 C-3.33 15 -3.66 15 -4 15 C-4.50610724 8.92671312 -3.04157942 5.22771463 0 0 Z " fill="#0F3B1D" transform="translate(562,606)"/>
<path d="M0 0 C0.33 1.98 0.66 3.96 1 6 C-1.31 5.01 -3.62 4.02 -6 3 C-2.25 0 -2.25 0 0 0 Z " fill="#074B28" transform="translate(374,753)"/>
<path d="M0 0 C0 0.66 0 1.32 0 2 C-3.3 1.67 -6.6 1.34 -10 1 C-5.64467851 -1.17766075 -4.53374042 -1.03039555 0 0 Z " fill="#04330E" transform="translate(855,700)"/>
<path d="M0 0 C2.31 0 4.62 0 7 0 C7.66 1.32 8.32 2.64 9 4 C4.545 3.01 4.545 3.01 0 2 C0 1.34 0 0.68 0 0 Z " fill="#E7F0EE" transform="translate(824,690)"/>
<path d="M0 0 C0.33 0 0.66 0 1 0 C1.33 1.65 1.66 3.3 2 5 C2.33 5 2.66 5 3 5 C3 7.31 3 9.62 3 12 C2.01 11.34 1.02 10.68 0 10 C-0.29296875 7.6171875 -0.29296875 7.6171875 -0.1875 4.875 C-0.16042969 3.96492187 -0.13335937 3.05484375 -0.10546875 2.1171875 C-0.07066406 1.41851563 -0.03585938 0.71984375 0 0 Z " fill="#A7C649" transform="translate(244,541)"/>
<path d="M0 0 C0.25 6.625 0.25 6.625 -2 10 C-3.4783226 7.04335481 -3.06032783 4.25770263 -3 1 C-1 0 -1 0 0 0 Z " fill="#AAC74D" transform="translate(242,502)"/>
<path d="M0 0 C-0.33 0.66 -0.66 1.32 -1 2 C-3.64860427 2.59355614 -6.29197322 2.74209269 -9 3 C-9 2.34 -9 1.68 -9 1 C-5.8035914 -0.06546953 -3.34252724 -0.07427838 0 0 Z " fill="#FAFCFC" transform="translate(176,701)"/>
<path d="M0 0 C0 0.66 0 1.32 0 2 C-2.31 2.66 -4.62 3.32 -7 4 C-7 3.01 -7 2.02 -7 1 C-4.53721199 -0.231394 -2.7204945 -0.07159196 0 0 Z " fill="#04431F" transform="translate(562,436)"/>
<path d="M0 0 C0.66 0.66 1.32 1.32 2 2 C-2.43076923 4.09230769 -2.43076923 4.09230769 -5.3125 3.625 C-5.869375 3.41875 -6.42625 3.2125 -7 3 C-4.69 2.01 -2.38 1.02 0 0 Z " fill="#FBFDFC" transform="translate(202,684)"/>
<path d="M0 0 C0.99 0.33 1.98 0.66 3 1 C2.67 3.64 2.34 6.28 2 9 C0 7 0 7 -0.125 3.375 C-0.08375 2.26125 -0.0425 1.1475 0 0 Z " fill="#125A38" transform="translate(448,588)"/>
<path d="M0 0 C1.98 0 3.96 0 6 0 C6.33 0.66 6.66 1.32 7 2 C7.99 2.66 8.98 3.32 10 4 C3.47692308 3.38461538 3.47692308 3.38461538 1.0625 1.4375 C0.711875 0.963125 0.36125 0.48875 0 0 Z " fill="#99BB2D" transform="translate(420,346)"/>
</svg>
